<svg xmlns="http://www.w3.org/2000/svg" width="3840" height="2160" viewBox="0 0 1920 1080"><g transform="translate(0.00,0.00) scale(1.0000)"><path d="M198.9,156.3Q197.2,516.8 196.5,881.8" fill="none" stroke="#cdc9be" stroke-width="17.47" stroke-linecap="butt" stroke-linejoin="round" opacity="0.95"></path><path d="M190.1,145.1Q190.8,509.6 188.5,872.3" fill="none" stroke="#232326" stroke-width="16.64" stroke-linecap="butt" stroke-linejoin="round"></path><path d="M189.8,143.6Q191.7,507.8 190.4,873.2" fill="none" stroke="#232326" stroke-width="8.32" stroke-linecap="butt" stroke-linejoin="round" opacity="0.5"></path><path d="M175.2,861.3Q998.4,859.5 1819.9,861.0" fill="none" stroke="#cdc9be" stroke-width="17.47" stroke-linecap="butt" stroke-linejoin="round" opacity="0.95"></path><path d="M168.5,849.5Q991.4,847.8 1812.5,850.4" fill="none" stroke="#232326" stroke-width="16.64" stroke-linecap="butt" stroke-linejoin="round"></path><path d="M167.0,849.6Q991.7,850.9 1812.4,851.2" fill="none" stroke="#232326" stroke-width="8.32" stroke-linecap="butt" stroke-linejoin="round" opacity="0.5"></path><path d="M177.5,701.3Q196.0,700.0 212.8,698.2" fill="none" stroke="#cdc9be" stroke-width="9.61" stroke-linecap="butt" stroke-linejoin="round" opacity="0.95"></path><path d="M171.1,689.7Q186.1,689.7 204.9,689.3" fill="none" stroke="#8f8c83" stroke-width="9.15" stroke-linecap="butt" stroke-linejoin="round"></path><path d="M170.7,689.8Q187.5,688.8 204.3,688.8" fill="none" stroke="#8f8c83" stroke-width="4.58" stroke-linecap="butt" stroke-linejoin="round" opacity="0.5"></path><path d="M221.9,699.7Q987.4,699.0 1755.9,695.0" fill="none" stroke="#cdc9be" stroke-width="6.12" stroke-linecap="butt" stroke-linejoin="round" opacity="0.95"></path><path d="M211.9,688.7Q980.5,687.5 1748.5,686.7" fill="none" stroke="#8f8c83" stroke-width="5.82" stroke-linecap="butt" stroke-linejoin="round" opacity="0.24"></path><path d="M215.3,689.4Q981.3,688.6 1748.6,683.6" fill="none" stroke="#8f8c83" stroke-width="2.91" stroke-linecap="butt" stroke-linejoin="round" opacity="0.12"></path><path d="M179.1,541.3Q196.7,538.2 211.3,539.6" fill="none" stroke="#cdc9be" stroke-width="9.61" stroke-linecap="butt" stroke-linejoin="round" opacity="0.95"></path><path d="M170.7,528.9Q186.4,529.9 203.2,528.3" fill="none" stroke="#8f8c83" stroke-width="9.15" stroke-linecap="butt" stroke-linejoin="round"></path><path d="M169.6,529.8Q186.4,529.4 204.1,528.7" fill="none" stroke="#8f8c83" stroke-width="4.58" stroke-linecap="butt" stroke-linejoin="round" opacity="0.5"></path><path d="M223.6,538.9Q990.9,536.8 1756.4,533.9" fill="none" stroke="#cdc9be" stroke-width="6.12" stroke-linecap="butt" stroke-linejoin="round" opacity="0.95"></path><path d="M216.1,528.2Q982.3,528.1 1751.6,523.0" fill="none" stroke="#8f8c83" stroke-width="5.82" stroke-linecap="butt" stroke-linejoin="round" opacity="0.24"></path><path d="M215.1,530.8Q979.9,528.4 1749.5,524.8" fill="none" stroke="#8f8c83" stroke-width="2.91" stroke-linecap="butt" stroke-linejoin="round" opacity="0.12"></path><path d="M179.2,380.8Q193.8,381.0 210.8,379.8" fill="none" stroke="#cdc9be" stroke-width="9.61" stroke-linecap="butt" stroke-linejoin="round" opacity="0.95"></path><path d="M169.5,370.3Q185.4,367.5 204.2,367.5" fill="none" stroke="#8f8c83" stroke-width="9.15" stroke-linecap="butt" stroke-linejoin="round"></path><path d="M170.2,370.2Q186.7,367.9 203.3,368.8" fill="none" stroke="#8f8c83" stroke-width="4.58" stroke-linecap="butt" stroke-linejoin="round" opacity="0.5"></path><path d="M222.1,382.3Q988.9,377.7 1759.8,375.3" fill="none" stroke="#cdc9be" stroke-width="6.12" stroke-linecap="butt" stroke-linejoin="round" opacity="0.95"></path><path d="M214.3,368.8Q979.9,366.1 1751.4,364.8" fill="none" stroke="#8f8c83" stroke-width="5.82" stroke-linecap="butt" stroke-linejoin="round" opacity="0.24"></path><path d="M212.4,369.1Q982.8,368.7 1749.9,365.0" fill="none" stroke="#8f8c83" stroke-width="2.91" stroke-linecap="butt" stroke-linejoin="round" opacity="0.12"></path><path d="M177.6,220.1Q196.3,219.9 211.4,219.2" fill="none" stroke="#cdc9be" stroke-width="9.61" stroke-linecap="butt" stroke-linejoin="round" opacity="0.95"></path><path d="M170.7,211.1Q186.0,209.4 204.3,208.5" fill="none" stroke="#8f8c83" stroke-width="9.15" stroke-linecap="butt" stroke-linejoin="round"></path><path d="M170.8,209.7Q187.7,208.5 203.2,208.2" fill="none" stroke="#8f8c83" stroke-width="4.58" stroke-linecap="butt" stroke-linejoin="round" opacity="0.5"></path><path d="M221.1,223.2Q990.5,215.6 1757.8,217.0" fill="none" stroke="#cdc9be" stroke-width="6.12" stroke-linecap="butt" stroke-linejoin="round" opacity="0.95"></path><path d="M212.7,209.2Q981.7,209.7 1749.1,206.1" fill="none" stroke="#8f8c83" stroke-width="5.82" stroke-linecap="butt" stroke-linejoin="round" opacity="0.24"></path><path d="M214.3,209.7Q979.8,209.7 1751.5,206.5" fill="none" stroke="#8f8c83" stroke-width="2.91" stroke-linecap="butt" stroke-linejoin="round" opacity="0.12"></path><path d="M217.3,862.2Q219.4,860.6 216.3,862.3" fill="none" stroke="#cdc9be" stroke-width="8.74" stroke-linecap="butt" stroke-linejoin="round" opacity="0.95"></path><path d="M211.7,848.5Q208.9,848.4 208.9,848.7" fill="none" stroke="#232326" stroke-width="8.32" stroke-linecap="butt" stroke-linejoin="round"></path><path d="M210.7,850.2Q211.7,850.4 209.3,850.0" fill="none" stroke="#232326" stroke-width="4.16" stroke-linecap="butt" stroke-linejoin="round" opacity="0.5"></path><path d="M409.5,342.0Q427.8,337.6 444.3,338.4" fill="none" stroke="#cdc9be" stroke-width="7.43" stroke-linecap="butt" stroke-linejoin="round" opacity="0.95"></path><path d="M401.0,329.0Q420.4,331.0 436.5,328.7" fill="none" stroke="#8f8c83" stroke-width="7.07" stroke-linecap="butt" stroke-linejoin="round" opacity="0.5"></path><path d="M400.9,329.1Q419.4,329.0 436.1,329.0" fill="none" stroke="#8f8c83" stroke-width="3.54" stroke-linecap="butt" stroke-linejoin="round" opacity="0.25"></path><path d="M646.7,360.0Q666.2,359.6 683.5,357.9" fill="none" stroke="#cdc9be" stroke-width="7.43" stroke-linecap="butt" stroke-linejoin="round" opacity="0.95"></path><path d="M640.2,349.4Q657.6,351.2 676.5,349.7" fill="none" stroke="#8f8c83" stroke-width="7.07" stroke-linecap="butt" stroke-linejoin="round" opacity="0.5"></path><path d="M640.4,349.6Q659.5,350.1 675.7,348.0" fill="none" stroke="#8f8c83" stroke-width="3.54" stroke-linecap="butt" stroke-linejoin="round" opacity="0.25"></path><path d="M886.4,381.2Q903.9,379.6 925.3,380.4" fill="none" stroke="#cdc9be" stroke-width="7.43" stroke-linecap="butt" stroke-linejoin="round" opacity="0.95"></path><path d="M879.3,368.9Q895.7,368.6 915.7,366.5" fill="none" stroke="#8f8c83" stroke-width="7.07" stroke-linecap="butt" stroke-linejoin="round" opacity="0.5"></path><path d="M879.6,369.9Q899.0,368.1 916.6,369.2" fill="none" stroke="#8f8c83" stroke-width="3.54" stroke-linecap="butt" stroke-linejoin="round" opacity="0.25"></path><path d="M1127.8,401.5Q1144.2,400.6 1163.7,398.1" fill="none" stroke="#cdc9be" stroke-width="7.43" stroke-linecap="butt" stroke-linejoin="round" opacity="0.95"></path><path d="M1119.0,390.2Q1135.8,387.1 1156.5,388.7" fill="none" stroke="#8f8c83" stroke-width="7.07" stroke-linecap="butt" stroke-linejoin="round" opacity="0.5"></path><path d="M1120.4,390.0Q1138.2,387.7 1156.1,386.9" fill="none" stroke="#8f8c83" stroke-width="3.54" stroke-linecap="butt" stroke-linejoin="round" opacity="0.25"></path><path d="M1369.3,420.3Q1387.8,421.5 1404.0,418.6" fill="none" stroke="#cdc9be" stroke-width="7.43" stroke-linecap="butt" stroke-linejoin="round" opacity="0.95"></path><path d="M1361.5,410.9Q1377.2,407.1 1397.0,408.3" fill="none" stroke="#8f8c83" stroke-width="7.07" stroke-linecap="butt" stroke-linejoin="round" opacity="0.5"></path><path d="M1359.0,411.2Q1378.7,410.0 1395.9,409.1" fill="none" stroke="#8f8c83" stroke-width="3.54" stroke-linecap="butt" stroke-linejoin="round" opacity="0.25"></path></g></svg>