<svg xmlns="http://www.w3.org/2000/svg" width="1440" height="1800" viewBox="0 0 720 900"><g transform="translate(-280.00,-60.00) scale(1.0000)"><path d="M402.8,468.3Q495.6,473.6 597.0,471.8" fill="none" stroke="#232326" stroke-width="8.17" stroke-linecap="round" stroke-linejoin="round"></path><path d="M402.9,468.1Q500.3,473.1 597.2,468.6" fill="none" stroke="#232326" stroke-width="5.06" stroke-linecap="round" stroke-linejoin="round" opacity="0.72"></path><path d="M581.0,453.8Q590.5,592.0 599.2,718.1" fill="none" stroke="#232326" stroke-width="8.17" stroke-linecap="round" stroke-linejoin="round"></path><path d="M581.7,455.1Q586.5,590.9 595.2,718.2" fill="none" stroke="#232326" stroke-width="5.06" stroke-linecap="round" stroke-linejoin="round" opacity="0.72"></path><path d="M610.7,705.9Q496.7,702.8 387.0,707.5" fill="none" stroke="#232326" stroke-width="8.17" stroke-linecap="round" stroke-linejoin="round"></path><path d="M611.2,705.7Q496.6,707.8 390.9,706.6" fill="none" stroke="#232326" stroke-width="5.06" stroke-linecap="round" stroke-linejoin="round" opacity="0.72"></path><path d="M401.5,719.8Q412.7,590.5 418.0,453.8" fill="none" stroke="#232326" stroke-width="8.17" stroke-linecap="round" stroke-linejoin="round"></path><path d="M401.6,718.0Q411.0,590.1 414.8,454.5" fill="none" stroke="#232326" stroke-width="5.06" stroke-linecap="round" stroke-linejoin="round" opacity="0.72"></path><path d="M498.0,416.1Q496.9,445.0 499.5,469.5" fill="none" stroke="#232326" stroke-width="8.17" stroke-linecap="round" stroke-linejoin="round"></path><path d="M499.7,418.1Q498.4,443.9 498.7,469.2" fill="none" stroke="#232326" stroke-width="5.06" stroke-linecap="round" stroke-linejoin="round" opacity="0.72"></path><path d="M453.1,707.6Q457.2,755.4 452.6,803.0Q447.4,844.3 448.7,886.4Q431.9,891.8 419.6,892.0" fill="none" stroke="#232326" stroke-width="8.17" stroke-linecap="round" stroke-linejoin="round"></path><path d="M458.8,708.6Q454.4,751.5 452.1,797.5Q446.4,842.0 448.2,884.4Q434.3,890.5 420.7,896.6" fill="none" stroke="#232326" stroke-width="5.06" stroke-linecap="round" stroke-linejoin="round" opacity="0.72"></path><path d="M547.0,707.0Q549.4,756.9 547.1,801.4Q547.4,843.9 553.6,882.5Q567.4,886.8 578.0,895.5" fill="none" stroke="#232326" stroke-width="8.17" stroke-linecap="round" stroke-linejoin="round"></path><path d="M543.6,703.9Q543.0,755.9 546.9,798.3Q549.8,842.7 556.3,885.9Q563.2,887.3 578.2,896.3" fill="none" stroke="#232326" stroke-width="5.06" stroke-linecap="round" stroke-linejoin="round" opacity="0.72"></path><path d="M420.2,497.9Q412.5,544.0 403.3,597.3Q405.8,619.0 402.0,649.5" fill="none" stroke="#232326" stroke-width="8.17" stroke-linecap="round" stroke-linejoin="round"></path><path d="M420.6,501.4Q411.2,546.9 403.4,591.8Q403.6,619.3 400.3,647.5" fill="none" stroke="#232326" stroke-width="5.06" stroke-linecap="round" stroke-linejoin="round" opacity="0.72"></path><path d="M583.3,501.1Q620.2,474.5 662.9,458.7Q677.6,430.9 700.5,401.4" fill="none" stroke="#232326" stroke-width="8.17" stroke-linecap="round" stroke-linejoin="round"></path><path d="M580.1,497.6Q623.5,476.2 657.6,457.7Q683.7,429.6 702.4,402.6" fill="none" stroke="#232326" stroke-width="5.06" stroke-linecap="round" stroke-linejoin="round" opacity="0.72"></path><path d="M701.8,401.0Q721.5,384.0 742.9,356.1Q767.3,361.5 788.1,372.6Q776.9,399.4 762.5,423.4Q737.3,434.0 716.5,433.1Z" fill="none" stroke="#232326" stroke-width="7.00" stroke-linecap="round" stroke-linejoin="round"></path><path d="M701.1,405.5Q718.1,377.7 742.4,360.0Q765.1,367.9 784.0,370.5Q773.9,394.9 763.6,424.7Q741.2,427.0 713.6,434.9Z" fill="none" stroke="#232326" stroke-width="4.34" stroke-linecap="round" stroke-linejoin="round" opacity="0.72"></path><path d="M617.6,282.4Q616.9,300.2 617.2,316.5Q618.9,328.7 611.2,345.2Q604.2,359.8 597.3,379.1Q588.8,384.4 572.1,402.6Q557.8,410.6 541.4,415.8Q526.6,419.6 514.6,428.4Q491.9,426.2 484.0,428.2Q461.9,420.9 454.1,415.7Q436.3,406.5 420.4,399.0Q411.6,383.2 406.7,376.2Q394.8,360.8 392.6,343.8Q389.4,326.2 381.9,310.7Q380.9,291.6 379.7,271.6Q394.4,256.9 393.9,244.1Q400.0,233.2 417.0,211.3Q429.2,204.8 441.0,193.4Q450.9,185.6 461.2,176.2Q483.3,179.4 499.0,172.2Q515.0,170.4 525.5,178.4Q548.8,183.4 554.7,191.0Q563.7,195.5 586.4,208.1Q591.4,222.1 598.3,239.1Q603.9,246.8 617.2,268.5Q612.1,286.9 620.7,304.2Q617.2,323.0 612.9,340.2Q603.4,348.7 599.6,363.4" fill="none" stroke="#232326" stroke-width="8.17" stroke-linecap="round" stroke-linejoin="round"></path><path d="M615.6,278.9Q622.1,297.5 618.3,315.0Q614.3,334.1 610.0,348.2Q596.5,362.6 590.5,374.6Q582.3,390.9 568.3,402.8Q553.7,407.2 545.9,421.5Q533.4,428.2 515.3,426.7Q501.4,425.4 478.5,422.9Q470.7,426.3 452.9,419.1Q441.7,408.6 422.7,401.1Q410.3,384.1 400.9,373.2Q395.9,359.6 390.4,339.1Q383.3,330.2 379.1,308.9Q382.5,296.1 383.5,275.9Q390.9,254.4 391.0,239.6Q403.4,226.4 414.6,211.6Q425.8,204.7 436.7,188.5Q454.7,185.2 465.6,179.0Q485.8,179.4 498.8,174.4Q512.2,170.6 530.4,174.6Q538.1,186.0 555.6,189.0Q568.0,194.0 582.7,206.6Q596.7,227.6 601.6,234.8Q609.6,248.7 615.3,269.5Q614.0,281.8 621.7,304.3Q620.0,320.5 614.9,337.7Q607.0,354.7 597.8,366.4" fill="none" stroke="#232326" stroke-width="5.06" stroke-linecap="round" stroke-linejoin="round" opacity="0.72"></path><path d="M502.9,174.5Q485.9,162.4 479.9,143.4Q493.9,152.6 515.1,158.8Q503.9,173.8 495.8,182.9" fill="none" stroke="#232326" stroke-width="7.00" stroke-linecap="round" stroke-linejoin="round"></path><path d="M499.9,178.3Q489.3,165.4 476.9,147.4Q494.4,155.6 512.3,154.9Q500.8,169.9 495.5,178.9" fill="none" stroke="#232326" stroke-width="4.34" stroke-linecap="round" stroke-linejoin="round" opacity="0.72"></path><path d="M430.4,290.9Q441.2,282.5 447.7,279.6Q456.9,281.8 468.8,278.5Q471.5,286.9 478.9,290.8Q474.4,294.8 462.5,301.6Q453.9,300.4 444.1,298.8Z" fill="none" stroke="#232326" stroke-width="5.83" stroke-linecap="round" stroke-linejoin="round"></path><path d="M432.6,288.7Q438.1,285.7 446.8,279.5Q458.1,278.6 467.1,277.9Q474.1,282.1 480.6,291.1Q469.9,295.3 465.5,301.3Q455.0,300.5 447.7,298.3Z" fill="none" stroke="#232326" stroke-width="3.62" stroke-linecap="round" stroke-linejoin="round" opacity="0.72"></path><path d="M464.2,293.9Q463.2,293.2 463.1,296.1Q462.9,296.7 461.9,294.9Q461.2,296.2 463.4,297.5Q463.9,298.5 461.3,297.7Q460.0,299.3 460.0,300.9Q458.6,298.6 457.8,299.3Q455.3,299.1 457.3,298.7Q454.1,300.0 453.8,298.8Q454.5,300.1 452.8,297.2Q453.3,296.1 452.7,298.2Q450.5,295.9 452.3,295.0Q451.0,293.2 450.2,293.5Q451.9,291.6 450.3,292.3Q451.3,291.9 451.7,292.4Q451.5,292.0 451.6,291.0Q449.4,288.5 450.4,287.9Q451.5,287.7 452.6,287.2Q454.2,287.9 454.7,287.4Q454.2,285.6 455.6,285.6Q455.3,284.7 457.5,285.4Q459.3,286.1 458.4,285.2Q458.0,284.7 460.4,286.4Q460.6,289.5 463.7,289.8Q460.8,290.3 462.6,290.2Q465.0,291.4 464.4,291.1Q461.8,291.5 463.8,292.1Z" fill="none" stroke="#232326" stroke-width="4.67" stroke-linecap="round" stroke-linejoin="round"></path><path d="M463.8,293.5Q465.3,295.0 465.0,295.1Q462.3,297.3 462.4,296.3Q463.0,298.6 462.1,298.4Q461.7,299.4 461.4,297.6Q460.0,297.4 460.6,298.7Q457.3,299.8 457.2,299.0Q457.2,298.5 456.9,300.0Q456.3,299.7 454.9,299.8Q453.1,298.2 453.6,297.8Q451.0,299.2 452.4,297.7Q450.4,296.4 450.6,296.8Q449.1,296.8 451.4,295.5Q450.2,292.6 449.2,293.2Q450.4,292.4 449.5,290.1Q451.9,289.6 451.3,290.5Q451.0,290.0 451.3,287.8Q451.0,286.6 454.3,286.5Q453.4,286.6 454.9,287.2Q456.7,285.2 457.0,285.7Q456.0,285.5 458.6,287.1Q458.7,286.6 458.7,286.6Q459.0,285.6 461.9,287.2Q463.0,286.3 461.8,289.4Q463.0,289.7 462.1,288.9Q464.2,291.3 463.3,290.4Q463.1,293.6 463.1,292.4Z" fill="none" stroke="#232326" stroke-width="2.89" stroke-linecap="round" stroke-linejoin="round" opacity="0.72"></path><path d="M431.1,282.6Q441.2,278.8 448.2,273.8Q461.1,275.8 472.0,278.6Q475.8,282.1 480.3,283.7" fill="none" stroke="#232326" stroke-width="7.59" stroke-linecap="round" stroke-linejoin="round"></path><path d="M432.0,283.0Q439.5,281.6 452.0,274.9Q460.1,277.0 469.0,275.5Q478.7,283.8 483.8,283.9" fill="none" stroke="#232326" stroke-width="4.70" stroke-linecap="round" stroke-linejoin="round" opacity="0.72"></path><path d="M519.9,290.0Q525.7,281.8 535.1,278.4Q544.9,278.0 554.6,281.1Q563.6,284.0 567.6,291.9Q557.1,296.9 550.7,299.0Q544.9,299.5 535.7,300.4Z" fill="none" stroke="#232326" stroke-width="5.83" stroke-linecap="round" stroke-linejoin="round"></path><path d="M519.3,290.0Q529.7,282.1 536.8,280.3Q547.4,280.8 554.1,279.6Q560.7,285.5 566.6,291.4Q558.0,292.9 550.4,300.3Q545.2,298.0 534.3,299.9Z" fill="none" stroke="#232326" stroke-width="3.62" stroke-linecap="round" stroke-linejoin="round" opacity="0.72"></path><path d="M550.6,294.6Q554.1,295.1 551.4,294.5Q552.4,294.1 552.4,297.1Q552.5,295.9 549.2,298.2Q551.1,296.9 549.9,299.3Q548.8,298.4 547.3,298.4Q547.4,297.7 544.8,301.4Q547.2,298.9 544.4,299.2Q541.2,301.5 543.3,300.5Q542.8,300.5 542.4,299.8Q539.1,297.4 540.9,298.2Q540.6,298.1 539.2,296.1Q536.7,293.9 537.3,294.8Q536.4,295.7 538.7,291.7Q536.7,294.4 537.5,292.0Q539.6,292.7 538.4,289.9Q540.7,287.1 538.9,287.9Q539.0,286.0 541.2,287.4Q539.6,288.8 543.8,285.6Q541.4,284.7 543.7,286.5Q547.2,284.7 544.9,287.5Q544.8,287.5 547.2,286.8Q546.7,287.2 549.9,288.1Q548.7,285.7 551.4,287.7Q550.3,288.4 550.1,290.0Q550.1,292.6 552.6,291.1Q551.1,293.3 551.7,294.5Z" fill="none" stroke="#232326" stroke-width="4.67" stroke-linecap="round" stroke-linejoin="round"></path><path d="M551.5,292.7Q551.5,294.4 553.0,293.6Q551.3,295.8 552.0,296.2Q552.1,297.7 551.0,297.1Q551.2,298.6 549.1,298.9Q549.3,299.3 547.2,299.7Q547.5,298.5 546.1,300.5Q545.3,300.5 545.0,301.1Q543.6,301.0 541.2,299.5Q542.2,298.1 540.6,298.5Q538.6,298.6 539.0,298.3Q541.0,297.9 538.7,295.6Q540.0,297.2 537.0,293.5Q539.0,295.3 537.8,293.6Q537.1,290.6 538.0,291.8Q539.6,291.1 539.8,288.7Q540.9,289.0 540.3,287.9Q540.6,286.1 540.1,286.8Q542.3,285.5 543.4,287.7Q544.5,285.2 543.0,285.7Q545.2,284.7 546.1,285.1Q545.2,287.1 547.7,285.5Q546.6,286.5 548.7,287.6Q550.9,286.6 550.4,289.5Q549.8,288.6 550.2,289.9Q552.3,290.2 550.9,291.4Q550.6,292.0 553.1,293.1Z" fill="none" stroke="#232326" stroke-width="2.89" stroke-linecap="round" stroke-linejoin="round" opacity="0.72"></path><path d="M516.2,284.9Q527.6,280.8 535.4,274.6Q544.7,274.2 559.3,275.1Q565.3,281.1 571.1,284.3" fill="none" stroke="#232326" stroke-width="7.59" stroke-linecap="round" stroke-linejoin="round"></path><path d="M518.2,284.4Q526.9,282.0 536.9,274.9Q548.9,274.8 559.7,276.4Q563.4,282.0 570.5,286.9" fill="none" stroke="#232326" stroke-width="4.70" stroke-linecap="round" stroke-linejoin="round" opacity="0.72"></path><path d="M438.4,315.2Q447.3,317.7 456.5,321.3Q465.8,317.8 471.6,315.7" fill="none" stroke="#8f8c83" stroke-width="4.67" stroke-linecap="round" stroke-linejoin="round"></path><path d="M437.3,314.1Q446.2,318.1 456.1,322.7Q465.9,321.3 475.2,315.4" fill="none" stroke="#8f8c83" stroke-width="2.89" stroke-linecap="round" stroke-linejoin="round" opacity="0.72"></path><path d="M525.9,315.9Q537.6,320.0 544.9,323.5Q552.2,315.8 560.7,316.9" fill="none" stroke="#8f8c83" stroke-width="4.67" stroke-linecap="round" stroke-linejoin="round"></path><path d="M526.5,315.4Q535.1,319.6 545.9,323.4Q555.3,316.4 560.9,315.1" fill="none" stroke="#8f8c83" stroke-width="2.89" stroke-linecap="round" stroke-linejoin="round" opacity="0.72"></path><path d="M464.2,361.6Q501.3,359.3 536.6,359.8" fill="none" stroke="#232326" stroke-width="5.83" stroke-linecap="round" stroke-linejoin="round"></path><path d="M466.2,359.2Q500.5,359.8 534.0,359.3" fill="none" stroke="#232326" stroke-width="3.62" stroke-linecap="round" stroke-linejoin="round" opacity="0.72"></path></g></svg>