<svg xmlns="http://www.w3.org/2000/svg" width="2160" height="3840" viewBox="0 0 1080 1920"><g transform="translate(0.00,0.00) scale(1.0000)"><path d="M-73.1,-1.0Q233.2,-9.5 536.6,-11.7Q841.8,-0.2 1140.9,-1.8" fill="none" stroke="#2a2724" stroke-width="74.00" stroke-linecap="butt" stroke-linejoin="round" opacity="0.922"></path><path d="M1164.5,-17.1Q1168.5,-5.8 1181.9,-8.5" fill="none" stroke="#2a2724" stroke-width="28.91" stroke-linecap="butt" stroke-linejoin="round" opacity="0.362"></path><path d="M1163.0,1.7Q1181.2,18.5 1195.6,18.7" fill="none" stroke="#2a2724" stroke-width="23.02" stroke-linecap="butt" stroke-linejoin="round" opacity="0.583"></path><path d="M1181.3,-11.5Q1206.0,-2.9 1232.2,-8.6" fill="none" stroke="#2a2724" stroke-width="27.11" stroke-linecap="butt" stroke-linejoin="round" opacity="0.426"></path><path d="M-73.8,60.8Q227.5,61.6 534.9,55.5Q838.5,56.3 1134.4,53.7" fill="none" stroke="#2a2724" stroke-width="74.00" stroke-linecap="butt" stroke-linejoin="round" opacity="0.934"></path><path d="M1147.8,50.3Q1179.2,57.3 1204.0,70.3" fill="none" stroke="#2a2724" stroke-width="31.53" stroke-linecap="butt" stroke-linejoin="round" opacity="0.602"></path><path d="M1143.0,58.1Q1187.2,52.0 1241.2,56.7" fill="none" stroke="#2a2724" stroke-width="19.10" stroke-linecap="butt" stroke-linejoin="round" opacity="0.406"></path><path d="M1171.2,69.3Q1186.3,63.3 1187.3,71.9" fill="none" stroke="#2a2724" stroke-width="23.23" stroke-linecap="butt" stroke-linejoin="round" opacity="0.5"></path><path d="M-73.9,112.6Q238.0,115.0 540.5,109.3Q848.7,110.0 1152.1,116.1" fill="none" stroke="#2a2724" stroke-width="74.00" stroke-linecap="butt" stroke-linejoin="round" opacity="0.825"></path><path d="M1181.4,120.6Q1210.6,130.8 1235.7,135.1" fill="none" stroke="#2a2724" stroke-width="19.75" stroke-linecap="butt" stroke-linejoin="round" opacity="0.444"></path><path d="M1192.6,118.4Q1225.4,111.0 1253.6,102.3" fill="none" stroke="#2a2724" stroke-width="21.38" stroke-linecap="butt" stroke-linejoin="round" opacity="0.458"></path><path d="M1191.7,114.0Q1209.3,129.2 1218.6,130.8" fill="none" stroke="#2a2724" stroke-width="14.65" stroke-linecap="butt" stroke-linejoin="round" opacity="0.467"></path><path d="M-73.8,174.4Q264.9,169.5 600.5,174.3Q939.7,174.9 1272.7,174.0" fill="none" stroke="#2a2724" stroke-width="74.00" stroke-linecap="butt" stroke-linejoin="round" opacity="0.906"></path><path d="M1299.8,170.0Q1313.4,166.4 1322.0,156.6" fill="none" stroke="#2a2724" stroke-width="19.76" stroke-linecap="butt" stroke-linejoin="round" opacity="0.541"></path><path d="M1296.9,192.7Q1328.1,174.0 1367.9,161.4" fill="none" stroke="#2a2724" stroke-width="33.57" stroke-linecap="butt" stroke-linejoin="round" opacity="0.358"></path><path d="M1277.6,160.1Q1332.2,160.8 1378.6,176.0" fill="none" stroke="#2a2724" stroke-width="19.07" stroke-linecap="butt" stroke-linejoin="round" opacity="0.605"></path><path d="M-73.4,229.6Q256.1,233.7 575.3,226.8Q893.9,231.2 1215.3,233.1" fill="none" stroke="#2a2724" stroke-width="74.00" stroke-linecap="butt" stroke-linejoin="round" opacity="0.883"></path><path d="M1231.5,239.8Q1285.3,246.7 1337.5,250.9" fill="none" stroke="#2a2724" stroke-width="33.08" stroke-linecap="butt" stroke-linejoin="round" opacity="0.374"></path><path d="M1251.4,216.7Q1272.9,239.2 1295.9,258.8" fill="none" stroke="#2a2724" stroke-width="17.58" stroke-linecap="butt" stroke-linejoin="round" opacity="0.537"></path><path d="M1254.7,212.6Q1250.5,216.4 1252.7,213.4" fill="none" stroke="#2a2724" stroke-width="26.62" stroke-linecap="butt" stroke-linejoin="round" opacity="0.44"></path><path d="M-71.2,289.7Q242.1,295.3 558.3,297.6Q869.8,291.6 1184.9,292.2" fill="none" stroke="#2a2724" stroke-width="74.00" stroke-linecap="butt" stroke-linejoin="round" opacity="0.821"></path><path d="M1230.7,303.6Q1251.6,305.6 1259.8,308.8" fill="none" stroke="#2a2724" stroke-width="32.61" stroke-linecap="butt" stroke-linejoin="round" opacity="0.511"></path><path d="M1218.9,304.0Q1239.7,287.0 1259.2,274.3" fill="none" stroke="#2a2724" stroke-width="32.80" stroke-linecap="butt" stroke-linejoin="round" opacity="0.345"></path><path d="M1198.8,288.6Q1226.5,279.3 1244.3,267.0" fill="none" stroke="#2a2724" stroke-width="30.59" stroke-linecap="butt" stroke-linejoin="round" opacity="0.603"></path><path d="M-68.2,345.4Q270.5,347.0 604.1,352.1Q931.7,351.5 1269.6,347.6" fill="none" stroke="#2a2724" stroke-width="74.00" stroke-linecap="butt" stroke-linejoin="round" opacity="0.94"></path><path d="M1309.2,349.1Q1339.2,351.1 1373.6,363.6" fill="none" stroke="#2a2724" stroke-width="18.48" stroke-linecap="butt" stroke-linejoin="round" opacity="0.557"></path><path d="M1279.7,363.4Q1292.8,350.1 1308.6,351.6" fill="none" stroke="#2a2724" stroke-width="24.85" stroke-linecap="butt" stroke-linejoin="round" opacity="0.452"></path><path d="M1298.0,360.6Q1305.3,350.3 1320.1,344.0" fill="none" stroke="#2a2724" stroke-width="14.64" stroke-linecap="butt" stroke-linejoin="round" opacity="0.348"></path><path d="M-69.3,410.5Q259.0,408.9 591.0,410.2Q921.7,406.1 1260.9,403.7" fill="none" stroke="#2a2724" stroke-width="74.00" stroke-linecap="butt" stroke-linejoin="round" opacity="0.899"></path><path d="M1292.3,424.8Q1302.7,427.8 1322.8,425.0" fill="none" stroke="#2a2724" stroke-width="27.33" stroke-linecap="butt" stroke-linejoin="round" opacity="0.616"></path><path d="M1273.2,412.8Q1297.4,414.7 1319.6,418.8" fill="none" stroke="#2a2724" stroke-width="29.58" stroke-linecap="butt" stroke-linejoin="round" opacity="0.591"></path><path d="M1285.8,416.8Q1290.4,402.7 1296.4,399.6" fill="none" stroke="#2a2724" stroke-width="15.13" stroke-linecap="butt" stroke-linejoin="round" opacity="0.588"></path><path d="M-70.9,468.7Q264.6,463.7 595.8,473.0Q922.6,472.7 1251.4,461.0" fill="none" stroke="#2a2724" stroke-width="74.00" stroke-linecap="butt" stroke-linejoin="round" opacity="0.816"></path><path d="M1264.8,461.3Q1322.1,458.7 1366.2,455.2" fill="none" stroke="#2a2724" stroke-width="32.70" stroke-linecap="butt" stroke-linejoin="round" opacity="0.354"></path><path d="M1282.3,450.0Q1314.9,462.0 1337.5,486.0" fill="none" stroke="#2a2724" stroke-width="32.17" stroke-linecap="butt" stroke-linejoin="round" opacity="0.542"></path><path d="M1273.2,465.6Q1292.9,462.7 1313.0,455.1" fill="none" stroke="#2a2724" stroke-width="25.04" stroke-linecap="butt" stroke-linejoin="round" opacity="0.507"></path><path d="M-66.3,527.1Q242.7,527.3 543.6,521.7Q849.8,518.5 1160.5,519.5" fill="none" stroke="#2a2724" stroke-width="74.00" stroke-linecap="butt" stroke-linejoin="round" opacity="0.88"></path><path d="M1192.0,525.5Q1190.9,518.0 1195.9,525.5" fill="none" stroke="#2a2724" stroke-width="25.78" stroke-linecap="butt" stroke-linejoin="round" opacity="0.358"></path><path d="M1196.4,505.9Q1215.0,524.4 1230.1,544.6" fill="none" stroke="#2a2724" stroke-width="33.56" stroke-linecap="butt" stroke-linejoin="round" opacity="0.497"></path><path d="M1172.7,513.2Q1217.1,512.9 1272.5,501.8" fill="none" stroke="#2a2724" stroke-width="33.31" stroke-linecap="butt" stroke-linejoin="round" opacity="0.557"></path><path d="M-68.9,583.2Q256.6,578.2 594.2,582.3Q927.3,585.2 1255.8,585.0" fill="none" stroke="#2a2724" stroke-width="74.00" stroke-linecap="butt" stroke-linejoin="round" opacity="0.926"></path><path d="M1296.2,562.8Q1320.7,576.4 1331.0,588.9" fill="none" stroke="#2a2724" stroke-width="12.97" stroke-linecap="butt" stroke-linejoin="round" opacity="0.635"></path><path d="M1278.6,600.8Q1307.2,585.4 1335.5,570.3" fill="none" stroke="#2a2724" stroke-width="26.60" stroke-linecap="butt" stroke-linejoin="round" opacity="0.372"></path><path d="M1291.6,567.2Q1319.5,582.7 1338.1,606.9" fill="none" stroke="#2a2724" stroke-width="24.44" stroke-linecap="butt" stroke-linejoin="round" opacity="0.365"></path><path d="M-68.1,639.6Q264.2,632.1 597.6,636.0Q925.3,633.6 1260.4,643.6" fill="none" stroke="#2a2724" stroke-width="74.00" stroke-linecap="butt" stroke-linejoin="round" opacity="0.817"></path><path d="M1303.0,662.4Q1330.7,638.4 1365.3,617.3" fill="none" stroke="#2a2724" stroke-width="17.88" stroke-linecap="butt" stroke-linejoin="round" opacity="0.534"></path><path d="M1280.7,633.6Q1296.9,640.1 1301.8,639.9" fill="none" stroke="#2a2724" stroke-width="22.67" stroke-linecap="butt" stroke-linejoin="round" opacity="0.564"></path><path d="M1299.9,642.1Q1321.3,638.0 1337.7,627.9" fill="none" stroke="#2a2724" stroke-width="16.80" stroke-linecap="butt" stroke-linejoin="round" opacity="0.612"></path><path d="M-73.8,697.2Q245.8,706.2 557.6,707.2Q871.1,706.9 1180.8,697.0" fill="none" stroke="#2a2724" stroke-width="74.00" stroke-linecap="butt" stroke-linejoin="round" opacity="0.863"></path><path d="M1228.8,689.0Q1227.0,701.0 1231.2,699.6" fill="none" stroke="#2a2724" stroke-width="30.49" stroke-linecap="butt" stroke-linejoin="round" opacity="0.562"></path><path d="M1218.3,684.1Q1226.4,706.3 1230.8,707.0" fill="none" stroke="#2a2724" stroke-width="26.16" stroke-linecap="butt" stroke-linejoin="round" opacity="0.367"></path><path d="M1192.2,710.4Q1226.4,707.6 1273.7,692.1" fill="none" stroke="#2a2724" stroke-width="21.59" stroke-linecap="butt" stroke-linejoin="round" opacity="0.373"></path><path d="M-69.0,754.5Q263.3,756.0 592.0,755.4Q917.9,751.6 1251.6,752.7" fill="none" stroke="#2a2724" stroke-width="74.00" stroke-linecap="butt" stroke-linejoin="round" opacity="0.85"></path><path d="M1296.6,760.4Q1298.7,746.0 1313.6,741.1" fill="none" stroke="#2a2724" stroke-width="25.47" stroke-linecap="butt" stroke-linejoin="round" opacity="0.537"></path><path d="M1289.3,743.2Q1317.1,756.9 1356.2,773.5" fill="none" stroke="#2a2724" stroke-width="16.06" stroke-linecap="butt" stroke-linejoin="round" opacity="0.443"></path><path d="M1266.8,756.8Q1270.5,742.8 1284.4,736.8" fill="none" stroke="#2a2724" stroke-width="31.35" stroke-linecap="butt" stroke-linejoin="round" opacity="0.365"></path><path d="M-69.3,815.4Q244.4,810.7 563.5,807.4Q886.8,811.6 1194.8,818.0" fill="none" stroke="#2a2724" stroke-width="74.00" stroke-linecap="butt" stroke-linejoin="round" opacity="0.893"></path><path d="M1210.1,813.7Q1220.1,815.8 1237.3,833.2" fill="none" stroke="#2a2724" stroke-width="18.42" stroke-linecap="butt" stroke-linejoin="round" opacity="0.522"></path><path d="M1229.0,833.4Q1265.0,831.7 1291.2,823.3" fill="none" stroke="#2a2724" stroke-width="20.78" stroke-linecap="butt" stroke-linejoin="round" opacity="0.577"></path><path d="M1239.5,825.3Q1246.2,828.9 1251.1,825.7" fill="none" stroke="#2a2724" stroke-width="23.13" stroke-linecap="butt" stroke-linejoin="round" opacity="0.543"></path><path d="M-73.1,871.4Q250.0,869.5 572.6,870.9Q898.4,872.8 1220.0,875.0" fill="none" stroke="#2a2724" stroke-width="74.00" stroke-linecap="butt" stroke-linejoin="round" opacity="0.831"></path><path d="M1241.5,856.5Q1263.4,858.8 1288.3,860.7" fill="none" stroke="#2a2724" stroke-width="16.05" stroke-linecap="butt" stroke-linejoin="round" opacity="0.377"></path><path d="M1234.3,887.1Q1251.1,885.7 1270.8,871.6" fill="none" stroke="#2a2724" stroke-width="13.00" stroke-linecap="butt" stroke-linejoin="round" opacity="0.418"></path><path d="M1265.7,851.5Q1292.7,858.3 1327.2,855.9" fill="none" stroke="#2a2724" stroke-width="27.26" stroke-linecap="butt" stroke-linejoin="round" opacity="0.39"></path><path d="M-69.2,927.9Q245.6,922.4 552.7,921.9Q865.8,922.4 1180.0,932.7" fill="none" stroke="#2a2724" stroke-width="74.00" stroke-linecap="butt" stroke-linejoin="round" opacity="0.889"></path><path d="M1193.8,922.6Q1204.3,921.7 1220.6,931.9" fill="none" stroke="#2a2724" stroke-width="25.14" stroke-linecap="butt" stroke-linejoin="round" opacity="0.512"></path><path d="M1221.4,928.5Q1252.5,925.4 1299.7,910.2" fill="none" stroke="#2a2724" stroke-width="22.96" stroke-linecap="butt" stroke-linejoin="round" opacity="0.585"></path><path d="M1212.3,940.9Q1245.2,943.2 1281.7,936.7" fill="none" stroke="#2a2724" stroke-width="23.52" stroke-linecap="butt" stroke-linejoin="round" opacity="0.622"></path><path d="M-66.0,985.5Q258.5,986.5 589.6,985.0Q918.2,982.5 1242.6,987.7" fill="none" stroke="#2a2724" stroke-width="74.00" stroke-linecap="butt" stroke-linejoin="round" opacity="0.905"></path><path d="M1268.1,971.2Q1295.4,973.4 1334.4,985.3" fill="none" stroke="#2a2724" stroke-width="23.98" stroke-linecap="butt" stroke-linejoin="round" opacity="0.442"></path><path d="M1260.1,976.4Q1284.4,980.1 1296.0,1003.2" fill="none" stroke="#2a2724" stroke-width="28.65" stroke-linecap="butt" stroke-linejoin="round" opacity="0.601"></path><path d="M1280.1,988.2Q1316.3,995.5 1355.4,989.8" fill="none" stroke="#2a2724" stroke-width="19.63" stroke-linecap="butt" stroke-linejoin="round" opacity="0.537"></path><path d="M-72.6,1044.3Q255.8,1053.7 575.7,1049.5Q906.4,1044.4 1226.7,1046.2" fill="none" stroke="#2a2724" stroke-width="74.00" stroke-linecap="butt" stroke-linejoin="round" opacity="0.937"></path><path d="M1249.0,1032.4Q1267.1,1049.7 1279.9,1061.4" fill="none" stroke="#2a2724" stroke-width="30.43" stroke-linecap="butt" stroke-linejoin="round" opacity="0.49"></path><path d="M1234.4,1043.0Q1248.9,1036.6 1259.2,1026.5" fill="none" stroke="#2a2724" stroke-width="12.91" stroke-linecap="butt" stroke-linejoin="round" opacity="0.376"></path><path d="M1256.6,1037.5Q1293.0,1031.6 1318.5,1024.5" fill="none" stroke="#2a2724" stroke-width="27.65" stroke-linecap="butt" stroke-linejoin="round" opacity="0.56"></path><path d="M-70.9,1104.9Q246.1,1109.7 564.8,1114.1Q890.5,1107.6 1210.5,1105.7" fill="none" stroke="#2a2724" stroke-width="74.00" stroke-linecap="butt" stroke-linejoin="round" opacity="0.809"></path><path d="M1220.0,1091.6Q1259.5,1104.0 1301.4,1129.2" fill="none" stroke="#2a2724" stroke-width="26.52" stroke-linecap="butt" stroke-linejoin="round" opacity="0.452"></path><path d="M1213.7,1102.0Q1266.5,1107.1 1325.6,1125.4" fill="none" stroke="#2a2724" stroke-width="32.70" stroke-linecap="butt" stroke-linejoin="round" opacity="0.38"></path><path d="M1250.9,1123.7Q1262.7,1116.7 1276.7,1125.9" fill="none" stroke="#2a2724" stroke-width="15.41" stroke-linecap="butt" stroke-linejoin="round" opacity="0.451"></path><path d="M-73.7,1164.2Q260.5,1160.1 584.5,1158.2Q912.5,1159.3 1236.3,1165.1" fill="none" stroke="#2a2724" stroke-width="74.00" stroke-linecap="butt" stroke-linejoin="round" opacity="0.899"></path><path d="M1284.2,1149.3Q1296.4,1167.4 1289.5,1172.3" fill="none" stroke="#2a2724" stroke-width="27.70" stroke-linecap="butt" stroke-linejoin="round" opacity="0.484"></path><path d="M1270.7,1161.7Q1283.4,1167.3 1297.6,1167.9" fill="none" stroke="#2a2724" stroke-width="33.66" stroke-linecap="butt" stroke-linejoin="round" opacity="0.586"></path><path d="M1264.8,1179.0Q1276.1,1185.6 1272.5,1183.6" fill="none" stroke="#2a2724" stroke-width="23.26" stroke-linecap="butt" stroke-linejoin="round" opacity="0.534"></path><path d="M-68.2,1218.2Q269.8,1228.8 599.9,1226.0Q928.0,1219.3 1266.6,1221.6" fill="none" stroke="#2a2724" stroke-width="74.00" stroke-linecap="butt" stroke-linejoin="round" opacity="0.812"></path><path d="M1302.8,1208.3Q1325.3,1219.8 1356.8,1235.5" fill="none" stroke="#2a2724" stroke-width="15.24" stroke-linecap="butt" stroke-linejoin="round" opacity="0.371"></path><path d="M1276.9,1203.4Q1322.3,1222.1 1367.0,1234.0" fill="none" stroke="#2a2724" stroke-width="28.23" stroke-linecap="butt" stroke-linejoin="round" opacity="0.631"></path><path d="M1278.7,1230.6Q1295.6,1228.8 1324.4,1232.1" fill="none" stroke="#2a2724" stroke-width="12.42" stroke-linecap="butt" stroke-linejoin="round" opacity="0.435"></path><path d="M-70.1,1280.0Q246.0,1284.3 563.4,1287.9Q876.9,1285.8 1189.5,1278.5" fill="none" stroke="#2a2724" stroke-width="74.00" stroke-linecap="butt" stroke-linejoin="round" opacity="0.937"></path><path d="M1219.0,1261.7Q1260.4,1260.9 1294.2,1269.3" fill="none" stroke="#2a2724" stroke-width="19.58" stroke-linecap="butt" stroke-linejoin="round" opacity="0.552"></path><path d="M1208.2,1261.4Q1245.8,1276.1 1285.3,1277.5" fill="none" stroke="#2a2724" stroke-width="16.26" stroke-linecap="butt" stroke-linejoin="round" opacity="0.373"></path><path d="M1225.1,1275.3Q1229.6,1282.1 1224.5,1280.6" fill="none" stroke="#2a2724" stroke-width="32.70" stroke-linecap="butt" stroke-linejoin="round" opacity="0.436"></path><path d="M-72.9,1338.8Q256.5,1337.1 584.4,1328.7Q908.5,1337.0 1237.8,1337.9" fill="none" stroke="#2a2724" stroke-width="74.00" stroke-linecap="butt" stroke-linejoin="round" opacity="0.836"></path><path d="M1258.9,1352.2Q1261.5,1352.1 1267.0,1353.7" fill="none" stroke="#2a2724" stroke-width="14.06" stroke-linecap="butt" stroke-linejoin="round" opacity="0.525"></path><path d="M1256.6,1341.8Q1304.4,1345.9 1341.4,1345.8" fill="none" stroke="#2a2724" stroke-width="32.26" stroke-linecap="butt" stroke-linejoin="round" opacity="0.363"></path><path d="M1258.7,1329.5Q1272.2,1326.0 1286.4,1328.7" fill="none" stroke="#2a2724" stroke-width="28.97" stroke-linecap="butt" stroke-linejoin="round" opacity="0.412"></path><path d="M-70.0,1394.7Q242.1,1395.3 543.5,1389.1Q851.4,1396.7 1164.9,1399.8" fill="none" stroke="#2a2724" stroke-width="74.00" stroke-linecap="butt" stroke-linejoin="round" opacity="0.877"></path><path d="M1194.5,1398.4Q1222.9,1386.9 1256.2,1375.6" fill="none" stroke="#2a2724" stroke-width="13.21" stroke-linecap="butt" stroke-linejoin="round" opacity="0.467"></path><path d="M1200.3,1394.2Q1231.2,1402.9 1263.5,1401.2" fill="none" stroke="#2a2724" stroke-width="31.84" stroke-linecap="butt" stroke-linejoin="round" opacity="0.551"></path><path d="M1182.6,1406.1Q1196.7,1397.8 1204.8,1391.0" fill="none" stroke="#2a2724" stroke-width="18.47" stroke-linecap="butt" stroke-linejoin="round" opacity="0.501"></path><path d="M-68.6,1454.0Q242.5,1462.9 550.9,1463.9Q867.6,1457.7 1175.9,1457.2" fill="none" stroke="#2a2724" stroke-width="74.00" stroke-linecap="butt" stroke-linejoin="round" opacity="0.806"></path><path d="M1211.8,1437.5Q1224.4,1437.1 1244.1,1449.9" fill="none" stroke="#2a2724" stroke-width="20.75" stroke-linecap="butt" stroke-linejoin="round" opacity="0.492"></path><path d="M1223.1,1454.5Q1215.7,1465.2 1201.9,1470.6" fill="none" stroke="#2a2724" stroke-width="24.82" stroke-linecap="butt" stroke-linejoin="round" opacity="0.486"></path><path d="M1178.5,1446.3Q1196.4,1439.4 1205.4,1442.7" fill="none" stroke="#2a2724" stroke-width="13.44" stroke-linecap="butt" stroke-linejoin="round" opacity="0.546"></path><path d="M-72.9,1517.1Q249.0,1515.2 572.5,1521.1Q890.0,1520.8 1212.7,1516.5" fill="none" stroke="#2a2724" stroke-width="74.00" stroke-linecap="butt" stroke-linejoin="round" opacity="0.89"></path><path d="M1253.7,1494.9Q1258.5,1510.9 1268.7,1522.8" fill="none" stroke="#2a2724" stroke-width="24.39" stroke-linecap="butt" stroke-linejoin="round" opacity="0.629"></path><path d="M1235.7,1495.0Q1277.6,1508.7 1315.8,1518.3" fill="none" stroke="#2a2724" stroke-width="15.71" stroke-linecap="butt" stroke-linejoin="round" opacity="0.515"></path><path d="M1222.1,1523.3Q1267.6,1527.3 1311.0,1537.1" fill="none" stroke="#2a2724" stroke-width="28.74" stroke-linecap="butt" stroke-linejoin="round" opacity="0.556"></path><path d="M-70.7,1573.9Q232.6,1574.5 549.6,1576.8Q856.1,1569.4 1164.6,1570.8" fill="none" stroke="#2a2724" stroke-width="74.00" stroke-linecap="butt" stroke-linejoin="round" opacity="0.821"></path><path d="M1168.7,1569.0Q1194.2,1588.9 1202.0,1591.4" fill="none" stroke="#2a2724" stroke-width="33.15" stroke-linecap="butt" stroke-linejoin="round" opacity="0.44"></path><path d="M1205.4,1573.4Q1225.1,1564.3 1246.7,1565.5" fill="none" stroke="#2a2724" stroke-width="21.61" stroke-linecap="butt" stroke-linejoin="round" opacity="0.583"></path><path d="M1182.9,1586.1Q1198.9,1584.5 1229.2,1588.1" fill="none" stroke="#2a2724" stroke-width="30.58" stroke-linecap="butt" stroke-linejoin="round" opacity="0.359"></path><path d="M-67.7,1630.3Q264.5,1628.9 602.5,1631.6Q941.7,1636.3 1274.2,1627.3" fill="none" stroke="#2a2724" stroke-width="74.00" stroke-linecap="butt" stroke-linejoin="round" opacity="0.812"></path><path d="M1289.4,1626.0Q1299.5,1632.1 1312.2,1638.9" fill="none" stroke="#2a2724" stroke-width="17.07" stroke-linecap="butt" stroke-linejoin="round" opacity="0.456"></path><path d="M1293.1,1625.0Q1313.4,1626.2 1337.7,1643.5" fill="none" stroke="#2a2724" stroke-width="18.98" stroke-linecap="butt" stroke-linejoin="round" opacity="0.576"></path><path d="M1290.2,1616.1Q1335.2,1636.1 1375.1,1650.2" fill="none" stroke="#2a2724" stroke-width="31.23" stroke-linecap="butt" stroke-linejoin="round" opacity="0.356"></path><path d="M-74.0,1691.6Q263.8,1691.5 590.1,1695.0Q922.7,1693.5 1248.6,1690.2" fill="none" stroke="#2a2724" stroke-width="74.00" stroke-linecap="butt" stroke-linejoin="round" opacity="0.802"></path><path d="M1268.9,1692.0Q1298.7,1697.2 1319.3,1713.0" fill="none" stroke="#2a2724" stroke-width="19.87" stroke-linecap="butt" stroke-linejoin="round" opacity="0.364"></path><path d="M1260.7,1690.7Q1292.8,1688.6 1335.4,1691.4" fill="none" stroke="#2a2724" stroke-width="18.80" stroke-linecap="butt" stroke-linejoin="round" opacity="0.432"></path><path d="M1300.1,1675.8Q1298.8,1684.7 1303.2,1692.6" fill="none" stroke="#2a2724" stroke-width="17.54" stroke-linecap="butt" stroke-linejoin="round" opacity="0.444"></path><path d="M-70.7,1747.9Q271.2,1743.9 608.6,1748.2Q943.7,1742.6 1284.7,1745.8" fill="none" stroke="#2a2724" stroke-width="74.00" stroke-linecap="butt" stroke-linejoin="round" opacity="0.845"></path><path d="M1310.8,1739.3Q1318.5,1757.4 1337.6,1769.0" fill="none" stroke="#2a2724" stroke-width="13.12" stroke-linecap="butt" stroke-linejoin="round" opacity="0.364"></path><path d="M1307.0,1754.5Q1333.8,1753.3 1368.5,1765.9" fill="none" stroke="#2a2724" stroke-width="15.93" stroke-linecap="butt" stroke-linejoin="round" opacity="0.58"></path><path d="M1307.9,1739.2Q1325.4,1734.6 1334.0,1730.9" fill="none" stroke="#2a2724" stroke-width="15.26" stroke-linecap="butt" stroke-linejoin="round" opacity="0.44"></path><path d="M-73.9,1806.9Q262.3,1798.6 597.2,1800.5Q932.1,1806.0 1268.5,1801.8" fill="none" stroke="#2a2724" stroke-width="74.00" stroke-linecap="butt" stroke-linejoin="round" opacity="0.886"></path><path d="M1313.2,1799.9Q1307.1,1790.3 1305.0,1795.0" fill="none" stroke="#2a2724" stroke-width="20.82" stroke-linecap="butt" stroke-linejoin="round" opacity="0.461"></path><path d="M1291.9,1816.3Q1307.4,1801.2 1312.3,1796.5" fill="none" stroke="#2a2724" stroke-width="30.47" stroke-linecap="butt" stroke-linejoin="round" opacity="0.471"></path><path d="M1309.2,1823.4Q1322.7,1809.2 1343.3,1789.3" fill="none" stroke="#2a2724" stroke-width="24.15" stroke-linecap="butt" stroke-linejoin="round" opacity="0.598"></path><path d="M-72.5,1865.3Q247.2,1866.3 577.1,1867.1Q889.8,1865.5 1212.7,1863.1" fill="none" stroke="#2a2724" stroke-width="74.00" stroke-linecap="butt" stroke-linejoin="round" opacity="0.871"></path><path d="M1237.6,1849.5Q1274.7,1853.9 1302.4,1850.7" fill="none" stroke="#2a2724" stroke-width="19.01" stroke-linecap="butt" stroke-linejoin="round" opacity="0.585"></path><path d="M1234.8,1879.5Q1274.6,1868.7 1331.1,1864.8" fill="none" stroke="#2a2724" stroke-width="12.85" stroke-linecap="butt" stroke-linejoin="round" opacity="0.41"></path><path d="M1261.5,1869.6Q1259.6,1854.0 1262.9,1842.1" fill="none" stroke="#2a2724" stroke-width="22.95" stroke-linecap="butt" stroke-linejoin="round" opacity="0.628"></path><path d="M-71.5,1918.2Q266.4,1925.8 597.8,1922.6Q935.6,1923.5 1268.2,1917.4" fill="none" stroke="#2a2724" stroke-width="74.00" stroke-linecap="butt" stroke-linejoin="round" opacity="0.898"></path><path d="M1291.6,1920.4Q1319.7,1921.2 1366.8,1939.8" fill="none" stroke="#2a2724" stroke-width="29.98" stroke-linecap="butt" stroke-linejoin="round" opacity="0.526"></path><path d="M1309.2,1909.2Q1313.8,1917.0 1309.5,1926.9" fill="none" stroke="#2a2724" stroke-width="19.72" stroke-linecap="butt" stroke-linejoin="round" opacity="0.452"></path><path d="M1286.6,1907.6Q1323.8,1900.8 1347.0,1899.5" fill="none" stroke="#2a2724" stroke-width="21.98" stroke-linecap="butt" stroke-linejoin="round" opacity="0.368"></path></g></svg>