<svg xmlns="http://www.w3.org/2000/svg" width="3840" height="2160" viewBox="0 0 1920 1080"><g transform="translate(0.00,0.00) scale(1.0000)"><path d="M-55.4,873.3Q957.4,862.3 1963.0,851.4" fill="none" stroke="#2a2724" stroke-width="15.29" stroke-linecap="butt" stroke-linejoin="round" opacity="0.672"></path><path d="M-44.2,859.2Q952.1,850.9 1974.4,866.3" fill="none" stroke="#2a2724" stroke-width="10.09" stroke-linecap="butt" stroke-linejoin="round" opacity="0.403"></path><path d="M-31.6,63.3Q82.9,119.9 196.1,168.0" fill="none" stroke="#8f8c83" stroke-width="10.19" stroke-linecap="butt" stroke-linejoin="round" opacity="0.37"></path><path d="M-34.4,54.2Q74.5,117.4 202.4,158.8" fill="none" stroke="#8f8c83" stroke-width="6.73" stroke-linecap="butt" stroke-linejoin="round" opacity="0.222"></path><path d="M11.9,144.8Q121.1,196.4 245.1,237.7" fill="none" stroke="#8f8c83" stroke-width="10.19" stroke-linecap="butt" stroke-linejoin="round" opacity="0.319"></path><path d="M6.5,146.1Q113.8,189.7 233.4,236.4" fill="none" stroke="#8f8c83" stroke-width="6.73" stroke-linecap="butt" stroke-linejoin="round" opacity="0.192"></path><path d="M58.3,222.1Q178.7,265.6 279.6,328.3" fill="none" stroke="#8f8c83" stroke-width="10.19" stroke-linecap="butt" stroke-linejoin="round" opacity="0.269"></path><path d="M55.0,221.0Q161.1,265.2 287.4,321.6" fill="none" stroke="#8f8c83" stroke-width="6.73" stroke-linecap="butt" stroke-linejoin="round" opacity="0.161"></path><path d="M211.4,181.4Q211.3,182.9 214.7,199.2Q215.1,196.2 212.8,204.5Q211.7,212.4 190.2,220.7Q185.2,228.4 191.6,229.9Q179.5,237.4 169.8,235.5Q161.0,239.5 149.0,249.0Q149.1,245.0 144.4,237.8Q127.1,240.8 127.1,244.1Q111.2,241.7 116.0,225.6Q100.3,234.3 96.8,219.9Q104.3,211.1 85.2,200.6" fill="none" stroke="#2a2724" stroke-width="20.39" stroke-linecap="butt" stroke-linejoin="round" opacity="0.84"></path><path d="M81.4,176.3Q86.8,158.6 90.6,155.6Q85.2,142.7 92.8,149.3Q94.1,145.1 104.5,131.4Q94.3,118.2 113.6,117.6Q116.1,122.4 129.6,115.9Q122.2,115.3 134.6,114.0Q150.8,103.5 162.2,106.2Q171.5,114.1 175.6,118.5Q176.1,107.6 184.1,116.7Q197.5,123.0 195.8,139.6Q200.8,136.4 213.2,145.5Q218.8,162.3 208.6,156.8Q216.0,169.8 209.9,179.9" fill="none" stroke="#2a2724" stroke-width="20.39" stroke-linecap="butt" stroke-linejoin="round" opacity="0.84"></path><path d="M208.4,172.5Q202.0,188.5 216.2,189.5Q213.1,187.9 213.8,213.5Q211.7,224.3 204.5,216.1Q177.8,236.9 191.5,229.8Q174.7,246.4 164.9,238.4Q150.3,231.0 154.3,232.2Q144.2,231.1 135.6,242.1Q134.2,236.9 117.2,243.2Q106.6,243.7 102.3,226.3Q90.6,236.8 102.0,211.0Q97.8,219.0 92.0,205.3" fill="none" stroke="#2a2724" stroke-width="13.45" stroke-linecap="butt" stroke-linejoin="round" opacity="0.504"></path><path d="M82.9,178.2Q93.0,154.4 74.7,159.2Q82.8,153.7 84.8,143.3Q101.0,135.8 105.5,135.8Q112.7,116.2 100.3,130.7Q112.7,125.3 134.0,109.1Q127.6,112.5 134.8,118.8Q148.4,121.8 154.5,118.4Q152.1,114.2 180.7,114.5Q183.3,106.0 178.2,120.5Q199.2,135.4 196.1,125.7Q203.6,153.0 201.4,150.4Q216.5,141.7 206.1,169.4Q208.0,160.0 223.0,170.6" fill="none" stroke="#2a2724" stroke-width="13.45" stroke-linecap="butt" stroke-linejoin="round" opacity="0.504"></path><path d="M204.8,174.2Q199.9,182.7 202.3,194.8Q195.7,193.7 198.9,202.3Q194.8,216.4 189.9,215.6Q179.6,220.7 178.8,220.2Q181.8,218.7 162.5,229.5Q161.1,239.6 158.6,229.5Q149.9,229.8 144.4,232.7Q142.4,227.0 130.8,223.7Q117.9,229.3 116.2,222.8Q102.5,226.4 104.8,218.3Q95.3,211.5 99.8,204.5Q101.3,190.8 88.9,195.1Q90.4,186.7 86.4,177.9Q99.5,168.3 94.1,165.4Q89.3,164.1 94.9,154.8" fill="none" stroke="#8f8c83" stroke-width="10.19" stroke-linecap="butt" stroke-linejoin="round" opacity="0.554"></path><path d="M116.6,124.8Q115.6,118.5 130.2,123.4Q126.2,128.8 138.9,118.0Q144.0,110.7 159.5,123.8Q158.5,123.8 172.5,121.8Q168.3,122.7 177.8,123.0Q182.6,130.9 195.0,133.8Q199.7,136.4 200.2,146.8Q198.0,150.2 199.9,156.8Q199.9,164.2 207.2,177.3" fill="none" stroke="#8f8c83" stroke-width="10.19" stroke-linecap="butt" stroke-linejoin="round" opacity="0.554"></path><path d="M204.2,180.7Q198.9,187.7 206.6,182.5Q198.9,196.3 201.4,207.1Q205.7,208.4 196.5,207.2Q183.8,209.2 188.1,219.6Q174.6,224.1 162.3,227.0Q163.7,237.9 155.2,237.7Q143.5,223.9 140.0,240.9Q143.6,230.3 131.4,237.2Q126.4,237.4 114.3,215.4Q103.9,216.3 113.1,221.3Q111.3,206.0 89.6,203.7Q92.6,200.4 94.7,191.9Q80.3,179.0 95.3,176.3Q82.3,165.3 97.2,157.1Q92.6,152.0 95.1,155.7" fill="none" stroke="#8f8c83" stroke-width="6.73" stroke-linecap="butt" stroke-linejoin="round" opacity="0.333"></path><path d="M119.8,135.5Q122.7,121.5 125.7,119.9Q130.3,126.3 135.7,113.2Q140.7,128.7 162.5,111.4Q156.4,124.2 175.2,117.4Q168.2,115.8 175.9,133.7Q176.8,129.1 192.7,145.8Q205.4,138.8 204.0,150.5Q202.1,156.6 209.7,166.6Q194.5,163.5 204.8,178.9" fill="none" stroke="#8f8c83" stroke-width="6.73" stroke-linecap="butt" stroke-linejoin="round" opacity="0.333"></path><path d="M199.0,174.0Q192.8,175.2 187.5,179.0" fill="none" stroke="#2a2724" stroke-width="13.76" stroke-linecap="butt" stroke-linejoin="round" opacity="0.84"></path><path d="M198.4,172.1Q188.3,178.7 190.1,176.1" fill="none" stroke="#2a2724" stroke-width="9.08" stroke-linecap="butt" stroke-linejoin="round" opacity="0.504"></path><path d="M188.1,203.0Q184.7,200.4 185.0,201.9" fill="none" stroke="#2a2724" stroke-width="8.66" stroke-linecap="butt" stroke-linejoin="round" opacity="0.84"></path><path d="M189.7,203.8Q184.7,194.6 181.8,197.0" fill="none" stroke="#2a2724" stroke-width="5.72" stroke-linecap="butt" stroke-linejoin="round" opacity="0.504"></path><path d="M176.7,221.9Q176.1,218.9 172.7,212.9" fill="none" stroke="#2a2724" stroke-width="8.66" stroke-linecap="butt" stroke-linejoin="round" opacity="0.84"></path><path d="M172.4,218.9Q171.5,214.7 166.0,214.2" fill="none" stroke="#2a2724" stroke-width="5.72" stroke-linecap="butt" stroke-linejoin="round" opacity="0.504"></path><path d="M146.2,225.2Q147.2,222.0 144.7,213.6" fill="none" stroke="#2a2724" stroke-width="13.76" stroke-linecap="butt" stroke-linejoin="round" opacity="0.84"></path><path d="M144.5,226.8Q155.0,225.8 151.8,218.5" fill="none" stroke="#2a2724" stroke-width="9.08" stroke-linecap="butt" stroke-linejoin="round" opacity="0.504"></path><path d="M126.1,223.0Q129.0,217.6 127.7,212.5" fill="none" stroke="#2a2724" stroke-width="8.66" stroke-linecap="butt" stroke-linejoin="round" opacity="0.84"></path><path d="M118.2,217.9Q120.9,216.2 124.1,218.3" fill="none" stroke="#2a2724" stroke-width="5.72" stroke-linecap="butt" stroke-linejoin="round" opacity="0.504"></path><path d="M101.1,200.2Q109.1,195.5 107.0,194.8" fill="none" stroke="#2a2724" stroke-width="8.66" stroke-linecap="butt" stroke-linejoin="round" opacity="0.84"></path><path d="M106.0,204.1Q103.0,197.9 105.6,196.9" fill="none" stroke="#2a2724" stroke-width="5.72" stroke-linecap="butt" stroke-linejoin="round" opacity="0.504"></path><path d="M97.7,175.1Q99.7,174.2 110.2,178.1" fill="none" stroke="#2a2724" stroke-width="13.76" stroke-linecap="butt" stroke-linejoin="round" opacity="0.84"></path><path d="M93.7,181.1Q101.1,175.5 113.4,175.8" fill="none" stroke="#2a2724" stroke-width="9.08" stroke-linecap="butt" stroke-linejoin="round" opacity="0.504"></path><path d="M107.0,153.3Q106.8,150.7 107.1,150.4" fill="none" stroke="#2a2724" stroke-width="8.66" stroke-linecap="butt" stroke-linejoin="round" opacity="0.84"></path><path d="M101.0,146.2Q100.9,158.4 111.5,149.4" fill="none" stroke="#2a2724" stroke-width="5.72" stroke-linecap="butt" stroke-linejoin="round" opacity="0.504"></path><path d="M121.7,130.3Q123.0,138.6 124.3,136.0" fill="none" stroke="#2a2724" stroke-width="8.66" stroke-linecap="butt" stroke-linejoin="round" opacity="0.84"></path><path d="M121.3,129.7Q128.3,136.9 123.5,134.7" fill="none" stroke="#2a2724" stroke-width="5.72" stroke-linecap="butt" stroke-linejoin="round" opacity="0.504"></path><path d="M145.0,128.0Q148.7,136.2 151.0,139.7" fill="none" stroke="#2a2724" stroke-width="13.76" stroke-linecap="butt" stroke-linejoin="round" opacity="0.84"></path><path d="M151.9,122.6Q142.4,129.8 147.1,140.5" fill="none" stroke="#2a2724" stroke-width="9.08" stroke-linecap="butt" stroke-linejoin="round" opacity="0.504"></path><path d="M170.6,130.4Q175.1,138.8 171.7,137.6" fill="none" stroke="#2a2724" stroke-width="8.66" stroke-linecap="butt" stroke-linejoin="round" opacity="0.84"></path><path d="M173.9,132.9Q170.3,140.5 167.4,135.7" fill="none" stroke="#2a2724" stroke-width="5.72" stroke-linecap="butt" stroke-linejoin="round" opacity="0.504"></path><path d="M190.2,150.1Q184.2,155.1 189.5,157.2" fill="none" stroke="#2a2724" stroke-width="8.66" stroke-linecap="butt" stroke-linejoin="round" opacity="0.84"></path><path d="M192.0,146.4Q185.4,156.8 183.0,150.5" fill="none" stroke="#2a2724" stroke-width="5.72" stroke-linecap="butt" stroke-linejoin="round" opacity="0.504"></path><path d="M155.9,179.2Q155.6,172.2 155.8,175.6Q149.4,178.1 155.7,176.7Q150.8,182.1 152.7,182.2Q147.4,183.8 154.0,177.0Q154.5,181.7 150.0,182.0Q150.6,184.0 147.8,177.8Q149.8,179.9 147.1,180.4Q147.2,177.8 145.2,183.1Q145.9,180.2 147.2,182.2Q143.6,183.5 146.0,182.6Q144.4,180.2 143.5,180.2Q140.6,179.1 143.3,178.5Q138.8,180.5 142.4,179.1Q144.3,172.6 144.0,171.6Q147.8,175.4 141.7,170.9Q143.6,171.0 141.4,171.0Q140.5,173.0 146.7,171.4Q149.2,171.4 146.2,172.1Q147.0,175.5 149.5,169.6Q151.0,170.5 150.7,172.0Q152.4,174.6 152.2,172.4Q146.0,172.6 152.4,171.1Q154.6,176.5 154.8,174.0Q150.4,171.4 153.5,174.6Q155.7,175.7 152.6,174.4Q151.6,173.5 155.6,175.9Z" fill="none" stroke="#2a2724" stroke-width="10.19" stroke-linecap="butt" stroke-linejoin="round" opacity="0.84"></path><path d="M151.7,174.3Q150.4,180.7 155.0,177.2Q155.1,178.7 151.4,176.4Q146.5,179.1 152.8,176.5Q146.2,176.9 154.0,181.7Q144.8,182.3 146.3,177.9Q143.2,177.5 150.8,182.4Q150.2,179.0 149.8,184.5Q143.3,175.7 144.6,183.0Q144.4,183.0 147.7,179.5Q149.3,178.1 145.4,180.7Q139.9,176.0 141.0,176.3Q147.7,180.5 147.3,173.8Q149.1,175.5 142.3,175.8Q147.4,173.0 144.0,178.2Q141.8,168.1 141.4,170.1Q146.7,175.3 140.6,169.6Q139.1,170.1 141.4,175.1Q142.4,169.6 149.7,167.9Q149.1,175.8 150.1,169.4Q147.1,171.1 150.2,172.0Q151.9,167.9 153.7,168.6Q156.1,174.6 147.2,172.3Q152.5,171.9 153.9,173.6Q148.8,174.7 149.9,177.9Q158.4,173.4 153.9,178.4Q158.1,171.6 156.7,179.4Z" fill="none" stroke="#2a2724" stroke-width="6.73" stroke-linecap="butt" stroke-linejoin="round" opacity="0.504"></path><path d="M200.7,221.7Q213.0,234.8 232.3,238.0" fill="none" stroke="#8f8c83" stroke-width="12.74" stroke-linecap="butt" stroke-linejoin="round" opacity="0.462"></path><path d="M201.5,229.0Q215.3,226.7 232.8,238.1" fill="none" stroke="#8f8c83" stroke-width="8.41" stroke-linecap="butt" stroke-linejoin="round" opacity="0.277"></path><path d="M1618.0,217.6Q1762.9,208.4 1920.5,208.3" fill="none" stroke="#2a2724" stroke-width="17.84" stroke-linecap="butt" stroke-linejoin="round" opacity="0.84"></path><path d="M1613.2,216.6Q1767.3,224.1 1914.8,221.2" fill="none" stroke="#2a2724" stroke-width="11.77" stroke-linecap="butt" stroke-linejoin="round" opacity="0.504"></path><path d="M1618.6,227.7Q1775.0,237.1 1913.8,230.2" fill="none" stroke="#8f8c83" stroke-width="10.19" stroke-linecap="butt" stroke-linejoin="round" opacity="0.462"></path><path d="M1620.9,226.5Q1778.3,224.4 1910.0,224.3" fill="none" stroke="#8f8c83" stroke-width="6.73" stroke-linecap="butt" stroke-linejoin="round" opacity="0.277"></path><path d="M1645.0,214.2Q1642.4,239.4 1637.4,256.2" fill="none" stroke="#2a2724" stroke-width="12.74" stroke-linecap="butt" stroke-linejoin="round" opacity="0.672"></path><path d="M1644.0,211.3Q1650.1,251.2 1648.8,260.6" fill="none" stroke="#2a2724" stroke-width="8.41" stroke-linecap="butt" stroke-linejoin="round" opacity="0.403"></path><path d="M1895.8,216.5Q1892.3,237.2 1890.2,257.3" fill="none" stroke="#2a2724" stroke-width="12.74" stroke-linecap="butt" stroke-linejoin="round" opacity="0.672"></path><path d="M1900.0,212.2Q1893.4,240.7 1898.0,268.0" fill="none" stroke="#2a2724" stroke-width="8.41" stroke-linecap="butt" stroke-linejoin="round" opacity="0.403"></path><path d="M1653.4,223.0Q1646.8,182.0 1636.6,138.0Q1661.2,140.4 1669.9,141.2Q1674.7,179.8 1673.0,221.9" fill="none" stroke="#2a2724" stroke-width="12.74" stroke-linecap="butt" stroke-linejoin="round" opacity="0.84"></path><path d="M1648.6,224.1Q1650.5,169.7 1647.9,138.2Q1654.6,135.0 1666.8,132.5Q1682.7,170.7 1680.4,212.2" fill="none" stroke="#2a2724" stroke-width="8.41" stroke-linecap="butt" stroke-linejoin="round" opacity="0.504"></path><path d="M1654.0,170.1Q1653.6,181.9 1668.3,179.3" fill="none" stroke="#8f8c83" stroke-width="10.19" stroke-linecap="butt" stroke-linejoin="round" opacity="0.605"></path><path d="M1655.3,172.3Q1651.8,180.3 1664.1,181.8" fill="none" stroke="#8f8c83" stroke-width="6.73" stroke-linecap="butt" stroke-linejoin="round" opacity="0.363"></path><path d="M1685.5,214.0Q1688.3,168.4 1681.4,124.2" fill="none" stroke="#2a2724" stroke-width="12.74" stroke-linecap="butt" stroke-linejoin="round" opacity="0.84"></path><path d="M1718.4,122.7Q1712.6,175.8 1717.9,216.9" fill="none" stroke="#2a2724" stroke-width="12.74" stroke-linecap="butt" stroke-linejoin="round" opacity="0.84"></path><path d="M1691.8,210.6Q1686.5,175.1 1693.2,118.4" fill="none" stroke="#2a2724" stroke-width="8.41" stroke-linecap="butt" stroke-linejoin="round" opacity="0.504"></path><path d="M1711.3,124.5Q1704.4,177.4 1713.4,218.1" fill="none" stroke="#2a2724" stroke-width="8.41" stroke-linecap="butt" stroke-linejoin="round" opacity="0.504"></path><path d="M1686.8,161.8Q1703.5,160.8 1704.7,170.7" fill="none" stroke="#8f8c83" stroke-width="10.19" stroke-linecap="butt" stroke-linejoin="round" opacity="0.605"></path><path d="M1686.0,164.5Q1697.2,167.0 1704.3,167.6" fill="none" stroke="#8f8c83" stroke-width="6.73" stroke-linecap="butt" stroke-linejoin="round" opacity="0.363"></path><path d="M1722.4,218.5Q1732.5,171.6 1730.8,131.4Q1744.8,127.5 1764.2,136.8Q1758.9,170.7 1759.9,213.8" fill="none" stroke="#2a2724" stroke-width="12.74" stroke-linecap="butt" stroke-linejoin="round" opacity="0.84"></path><path d="M1725.4,213.7Q1729.9,182.2 1726.0,138.5Q1741.9,136.6 1755.1,126.9Q1746.2,174.0 1749.2,220.1" fill="none" stroke="#2a2724" stroke-width="8.41" stroke-linecap="butt" stroke-linejoin="round" opacity="0.504"></path><path d="M1732.2,161.6Q1744.6,176.0 1746.0,184.0" fill="none" stroke="#8f8c83" stroke-width="10.19" stroke-linecap="butt" stroke-linejoin="round" opacity="0.605"></path><path d="M1728.6,162.0Q1739.7,163.6 1747.1,182.3" fill="none" stroke="#8f8c83" stroke-width="6.73" stroke-linecap="butt" stroke-linejoin="round" opacity="0.363"></path><path d="M1761.1,212.1Q1761.2,169.2 1760.8,139.7" fill="none" stroke="#2a2724" stroke-width="12.74" stroke-linecap="butt" stroke-linejoin="round" opacity="0.84"></path><path d="M1803.4,142.5Q1804.6,181.7 1812.6,213.5" fill="none" stroke="#2a2724" stroke-width="12.74" stroke-linecap="butt" stroke-linejoin="round" opacity="0.84"></path><path d="M1770.3,211.5Q1753.0,180.7 1751.6,135.6" fill="none" stroke="#2a2724" stroke-width="8.41" stroke-linecap="butt" stroke-linejoin="round" opacity="0.504"></path><path d="M1803.3,136.2Q1799.2,169.5 1812.9,225.0" fill="none" stroke="#2a2724" stroke-width="8.41" stroke-linecap="butt" stroke-linejoin="round" opacity="0.504"></path><path d="M1772.0,164.5Q1786.3,167.7 1799.1,185.4" fill="none" stroke="#8f8c83" stroke-width="10.19" stroke-linecap="butt" stroke-linejoin="round" opacity="0.605"></path><path d="M1769.2,171.3Q1779.0,185.2 1803.1,178.4" fill="none" stroke="#8f8c83" stroke-width="6.73" stroke-linecap="butt" stroke-linejoin="round" opacity="0.363"></path><path d="M1822.6,215.2Q1820.5,182.0 1808.6,134.5Q1818.2,129.3 1844.4,135.7Q1845.0,168.8 1846.1,217.3" fill="none" stroke="#2a2724" stroke-width="12.74" stroke-linecap="butt" stroke-linejoin="round" opacity="0.84"></path><path d="M1825.8,220.0Q1816.6,182.0 1807.4,133.3Q1824.8,123.1 1836.9,124.5Q1837.1,170.8 1841.7,222.9" fill="none" stroke="#2a2724" stroke-width="8.41" stroke-linecap="butt" stroke-linejoin="round" opacity="0.504"></path><path d="M1819.5,166.5Q1836.0,170.5 1839.2,176.9" fill="none" stroke="#8f8c83" stroke-width="10.19" stroke-linecap="butt" stroke-linejoin="round" opacity="0.605"></path><path d="M1827.5,169.5Q1829.0,178.3 1844.8,185.1" fill="none" stroke="#8f8c83" stroke-width="6.73" stroke-linecap="butt" stroke-linejoin="round" opacity="0.363"></path><path d="M1852.6,220.5Q1849.7,164.9 1855.0,121.5" fill="none" stroke="#2a2724" stroke-width="12.74" stroke-linecap="butt" stroke-linejoin="round" opacity="0.84"></path><path d="M1886.5,119.6Q1889.7,167.0 1884.4,223.8" fill="none" stroke="#2a2724" stroke-width="12.74" stroke-linecap="butt" stroke-linejoin="round" opacity="0.84"></path><path d="M1853.2,211.7Q1846.2,161.7 1854.4,123.8" fill="none" stroke="#2a2724" stroke-width="8.41" stroke-linecap="butt" stroke-linejoin="round" opacity="0.504"></path><path d="M1881.2,121.8Q1876.0,166.7 1873.8,211.9" fill="none" stroke="#2a2724" stroke-width="8.41" stroke-linecap="butt" stroke-linejoin="round" opacity="0.504"></path><path d="M1863.4,159.0Q1867.4,163.0 1872.4,176.6" fill="none" stroke="#8f8c83" stroke-width="10.19" stroke-linecap="butt" stroke-linejoin="round" opacity="0.605"></path><path d="M1863.3,165.2Q1867.0,167.5 1880.9,177.6" fill="none" stroke="#8f8c83" stroke-width="6.73" stroke-linecap="butt" stroke-linejoin="round" opacity="0.363"></path><path d="M1742.8,112.8Q1792.5,108.2 1857.1,110.4" fill="none" stroke="#2a2724" stroke-width="12.74" stroke-linecap="butt" stroke-linejoin="round" opacity="0.84"></path><path d="M1859.9,129.6Q1794.1,137.5 1738.9,141.0" fill="none" stroke="#2a2724" stroke-width="12.74" stroke-linecap="butt" stroke-linejoin="round" opacity="0.84"></path><path d="M1737.0,126.2Q1796.7,112.7 1859.7,111.8" fill="none" stroke="#2a2724" stroke-width="8.41" stroke-linecap="butt" stroke-linejoin="round" opacity="0.504"></path><path d="M1866.3,142.8Q1797.3,130.4 1744.3,144.3" fill="none" stroke="#2a2724" stroke-width="8.41" stroke-linecap="butt" stroke-linejoin="round" opacity="0.504"></path><g transform="rotate(-8 1598.4 298.4)"><path d="M1566.6,268.3Q1594.5,269.6 1630.1,264.2Q1635.2,291.2 1627.4,322.7Q1593.3,328.2 1565.6,325.1Z" fill="#e8d98a" stroke="none" opacity="0.62"></path><path d="M1571.8,273.7Q1604.5,260.5 1625.3,267.4Q1638.1,288.0 1625.9,328.9Q1592.3,330.9 1568.7,332.1Z" fill="none" stroke="#2a2724" stroke-width="12.74" stroke-linecap="butt" stroke-linejoin="round" opacity="0.84"></path><path d="M1567.1,264.9Q1607.1,264.7 1621.4,268.3Q1632.1,287.7 1637.3,324.9Q1588.0,326.1 1560.3,325.9Z" fill="none" stroke="#2a2724" stroke-width="8.41" stroke-linecap="butt" stroke-linejoin="round" opacity="0.504"></path><path d="M1580.3,291.0Q1597.5,294.4 1619.7,287.1" fill="none" stroke="#8f8c83" stroke-width="12.74" stroke-linecap="butt" stroke-linejoin="round" opacity="0.689"></path><path d="M1583.4,287.5Q1585.1,292.7 1611.8,292.7" fill="none" stroke="#8f8c83" stroke-width="8.41" stroke-linecap="butt" stroke-linejoin="round" opacity="0.413"></path><path d="M1580.2,307.6Q1590.5,308.9 1604.5,298.5" fill="none" stroke="#8f8c83" stroke-width="10.19" stroke-linecap="butt" stroke-linejoin="round" opacity="0.487"></path><path d="M1571.5,301.4Q1583.2,309.0 1611.9,297.1" fill="none" stroke="#8f8c83" stroke-width="6.73" stroke-linecap="butt" stroke-linejoin="round" opacity="0.292"></path><path d="M1566.3,308.7Q1603.5,301.2 1621.5,281.2" fill="none" stroke="#ff5247" stroke-width="15.29" stroke-linecap="butt" stroke-linejoin="round" opacity="0.84"></path><path d="M1578.4,316.3Q1600.1,292.4 1619.1,277.1" fill="none" stroke="#ff5247" stroke-width="10.09" stroke-linecap="butt" stroke-linejoin="round" opacity="0.504"></path><path d="M1635.6,326.3Q1643.6,331.2 1646.7,329.1" fill="none" stroke="#8f8c83" stroke-width="12.74" stroke-linecap="butt" stroke-linejoin="round" opacity="0.462"></path><path d="M1624.6,316.4Q1631.3,334.6 1642.1,337.1" fill="none" stroke="#8f8c83" stroke-width="8.41" stroke-linecap="butt" stroke-linejoin="round" opacity="0.277"></path></g><path d="M446.6,150.7Q952.4,149.1 1474.6,145.4" fill="none" stroke="#2a2724" stroke-width="20.39" stroke-linecap="butt" stroke-linejoin="round" opacity="0.84"></path><path d="M453.3,160.0Q974.4,146.6 1475.2,140.3" fill="none" stroke="#2a2724" stroke-width="13.45" stroke-linecap="butt" stroke-linejoin="round" opacity="0.504"></path><path d="M1452.8,132.3Q1454.4,413.4 1448.7,725.6" fill="none" stroke="#2a2724" stroke-width="20.39" stroke-linecap="butt" stroke-linejoin="round" opacity="0.84"></path><path d="M1451.9,120.3Q1469.3,429.6 1455.0,726.0" fill="none" stroke="#2a2724" stroke-width="13.45" stroke-linecap="butt" stroke-linejoin="round" opacity="0.504"></path><path d="M1479.3,690.0Q967.0,699.2 451.5,703.1" fill="none" stroke="#2a2724" stroke-width="20.39" stroke-linecap="butt" stroke-linejoin="round" opacity="0.84"></path><path d="M1475.6,687.6Q973.7,706.1 453.5,693.8" fill="none" stroke="#2a2724" stroke-width="13.45" stroke-linecap="butt" stroke-linejoin="round" opacity="0.504"></path><path d="M473.3,710.8Q477.2,418.4 470.5,121.6" fill="none" stroke="#2a2724" stroke-width="20.39" stroke-linecap="butt" stroke-linejoin="round" opacity="0.84"></path><path d="M464.5,722.0Q461.9,432.9 466.9,128.4" fill="none" stroke="#2a2724" stroke-width="13.45" stroke-linecap="butt" stroke-linejoin="round" opacity="0.504"></path><path d="M538.8,212.7Q965.7,210.0 1385.3,208.5" fill="none" stroke="#2a2724" stroke-width="10.19" stroke-linecap="butt" stroke-linejoin="round" opacity="0.84"></path><path d="M544.9,214.7Q959.9,213.9 1390.9,220.2" fill="none" stroke="#2a2724" stroke-width="6.73" stroke-linecap="butt" stroke-linejoin="round" opacity="0.504"></path><path d="M1372.2,196.5Q1379.4,416.3 1376.3,641.4" fill="none" stroke="#2a2724" stroke-width="10.19" stroke-linecap="butt" stroke-linejoin="round" opacity="0.84"></path><path d="M1380.0,199.2Q1372.8,424.0 1376.8,642.8" fill="none" stroke="#2a2724" stroke-width="6.73" stroke-linecap="butt" stroke-linejoin="round" opacity="0.504"></path><path d="M1379.4,635.4Q958.1,639.1 546.6,635.1" fill="none" stroke="#2a2724" stroke-width="10.19" stroke-linecap="butt" stroke-linejoin="round" opacity="0.84"></path><path d="M1392.1,635.7Q951.8,633.9 538.5,635.5" fill="none" stroke="#2a2724" stroke-width="6.73" stroke-linecap="butt" stroke-linejoin="round" opacity="0.504"></path><path d="M552.1,650.3Q550.7,431.2 551.0,195.9" fill="none" stroke="#2a2724" stroke-width="10.19" stroke-linecap="butt" stroke-linejoin="round" opacity="0.84"></path><path d="M551.8,650.9Q552.8,434.0 554.5,196.4" fill="none" stroke="#2a2724" stroke-width="6.73" stroke-linecap="butt" stroke-linejoin="round" opacity="0.504"></path><path d="M960.1,699.8Q953.1,745.9 964.6,800.6" fill="none" stroke="#2a2724" stroke-width="25.48" stroke-linecap="butt" stroke-linejoin="round" opacity="0.84"></path><path d="M960.1,694.2Q967.7,737.9 954.9,796.6" fill="none" stroke="#2a2724" stroke-width="16.82" stroke-linecap="butt" stroke-linejoin="round" opacity="0.504"></path><path d="M791.6,800.0Q962.8,792.0 1143.3,790.7" fill="none" stroke="#2a2724" stroke-width="20.39" stroke-linecap="butt" stroke-linejoin="round" opacity="0.84"></path><path d="M793.2,790.6Q954.5,785.9 1138.1,802.4" fill="none" stroke="#2a2724" stroke-width="13.45" stroke-linecap="butt" stroke-linejoin="round" opacity="0.504"></path><path d="M-37.8,873.1Q949.4,881.2 1957.7,864.4" fill="none" stroke="#2a2724" stroke-width="20.39" stroke-linecap="butt" stroke-linejoin="round" opacity="0.84"></path><path d="M-43.4,887.7Q959.2,874.2 1961.7,862.2" fill="none" stroke="#2a2724" stroke-width="13.45" stroke-linecap="butt" stroke-linejoin="round" opacity="0.504"></path><path d="M1464.3,826.4Q1500.8,854.1 1542.1,871.4" fill="none" stroke="#8f8c83" stroke-width="12.74" stroke-linecap="butt" stroke-linejoin="round" opacity="0.462"></path><path d="M1473.1,831.0Q1516.5,849.5 1547.7,873.8" fill="none" stroke="#8f8c83" stroke-width="8.41" stroke-linecap="butt" stroke-linejoin="round" opacity="0.277"></path><path d="M262.8,853.5Q300.1,847.0 335.5,850.7Q339.4,879.7 335.0,913.6Q298.2,910.4 271.4,910.0Z" fill="#c98b52" stroke="none" opacity="0.42"></path><path d="M266.7,846.3Q307.0,843.0 330.5,851.0Q335.8,885.7 327.2,905.2Q294.3,915.8 267.5,916.5Z" fill="none" stroke="#2a2724" stroke-width="15.29" stroke-linecap="butt" stroke-linejoin="round" opacity="0.84"></path><path d="M263.7,855.8Q288.1,858.8 344.7,846.6Q342.5,872.8 326.3,913.5Q310.8,902.3 268.7,914.7Z" fill="none" stroke="#2a2724" stroke-width="10.09" stroke-linecap="butt" stroke-linejoin="round" opacity="0.504"></path><path d="M336.8,855.2Q350.9,871.5 357.0,864.6Q352.3,884.2 353.4,888.6Q343.0,888.8 339.2,892.2" fill="none" stroke="#2a2724" stroke-width="12.74" stroke-linecap="butt" stroke-linejoin="round" opacity="0.84"></path><path d="M337.6,864.5Q351.7,853.6 367.5,873.6Q368.0,890.4 353.6,894.7Q341.4,899.8 342.1,904.3" fill="none" stroke="#2a2724" stroke-width="8.41" stroke-linecap="butt" stroke-linejoin="round" opacity="0.504"></path><path d="M292.3,840.2Q287.8,808.7 270.9,805.2Q276.0,798.7 286.9,792.0" fill="none" stroke="#8f8c83" stroke-width="10.19" stroke-linecap="butt" stroke-linejoin="round" opacity="0.84"></path><path d="M288.3,824.7Q293.9,835.1 279.5,807.7Q275.0,797.1 283.0,779.8" fill="none" stroke="#8f8c83" stroke-width="6.73" stroke-linecap="butt" stroke-linejoin="round" opacity="0.504"></path><path d="M307.7,834.1Q307.6,817.8 296.5,811.2Q314.9,799.4 313.4,787.8" fill="none" stroke="#8f8c83" stroke-width="10.19" stroke-linecap="butt" stroke-linejoin="round" opacity="0.84"></path><path d="M315.8,822.8Q298.0,810.4 295.5,812.7Q295.7,810.0 306.9,796.7" fill="none" stroke="#8f8c83" stroke-width="6.73" stroke-linecap="butt" stroke-linejoin="round" opacity="0.504"></path><path d="M1542.8,868.6Q1626.1,871.3 1696.1,870.5" fill="none" stroke="#2a2724" stroke-width="10.19" stroke-linecap="butt" stroke-linejoin="round" opacity="0.84"></path><path d="M1542.1,871.2Q1612.6,872.4 1697.8,873.3" fill="none" stroke="#2a2724" stroke-width="6.73" stroke-linecap="butt" stroke-linejoin="round" opacity="0.504"></path><path d="M1680.1,871.2Q1685.4,874.6 1680.0,888.5Q1623.0,893.8 1551.3,886.2Q1553.1,887.2 1558.0,871.7" fill="none" stroke="#2a2724" stroke-width="10.19" stroke-linecap="butt" stroke-linejoin="round" opacity="0.84"></path><path d="M1680.8,858.9Q1693.0,864.1 1679.8,893.8Q1610.9,896.7 1551.1,892.3Q1562.1,874.1 1563.8,874.5" fill="none" stroke="#2a2724" stroke-width="6.73" stroke-linecap="butt" stroke-linejoin="round" opacity="0.504"></path><path d="M1543.2,841.9Q1629.1,838.9 1689.4,834.4" fill="none" stroke="#2a2724" stroke-width="10.19" stroke-linecap="butt" stroke-linejoin="round" opacity="0.84"></path><path d="M1546.8,841.3Q1618.7,844.7 1691.5,845.3" fill="none" stroke="#2a2724" stroke-width="6.73" stroke-linecap="butt" stroke-linejoin="round" opacity="0.504"></path><path d="M1686.9,841.4Q1676.6,844.2 1676.2,855.4Q1611.0,854.2 1544.8,858.4Q1551.6,857.9 1562.0,842.9" fill="none" stroke="#2a2724" stroke-width="10.19" stroke-linecap="butt" stroke-linejoin="round" opacity="0.84"></path><path d="M1686.9,846.1Q1682.7,862.1 1673.9,858.5Q1621.9,865.1 1553.4,860.7Q1558.6,848.5 1560.3,854.6" fill="none" stroke="#2a2724" stroke-width="6.73" stroke-linecap="butt" stroke-linejoin="round" opacity="0.504"></path><path d="M1528.9,820.2Q1617.0,820.0 1690.4,813.6" fill="none" stroke="#2a2724" stroke-width="10.19" stroke-linecap="butt" stroke-linejoin="round" opacity="0.84"></path><path d="M1532.6,822.8Q1614.2,811.0 1684.2,807.6" fill="none" stroke="#2a2724" stroke-width="6.73" stroke-linecap="butt" stroke-linejoin="round" opacity="0.504"></path><path d="M1673.0,813.5Q1665.0,820.3 1665.1,828.3Q1598.9,830.7 1540.3,829.4Q1538.6,820.3 1541.5,818.2" fill="none" stroke="#2a2724" stroke-width="10.19" stroke-linecap="butt" stroke-linejoin="round" opacity="0.84"></path><path d="M1669.9,807.1Q1659.1,830.6 1664.9,831.0Q1592.4,840.2 1536.4,837.4Q1541.4,828.2 1538.4,821.4" fill="none" stroke="#2a2724" stroke-width="6.73" stroke-linecap="butt" stroke-linejoin="round" opacity="0.504"></path><g transform="rotate(-6 387.36 896.42)"><path d="M342.9,870.9Q383.8,866.8 431.8,864.7" fill="none" stroke="#2a2724" stroke-width="15.29" stroke-linecap="butt" stroke-linejoin="round" opacity="0.84"></path><path d="M438.6,920.7Q391.8,930.5 339.9,921.7" fill="none" stroke="#2a2724" stroke-width="15.29" stroke-linecap="butt" stroke-linejoin="round" opacity="0.84"></path><path d="M335.8,873.6Q394.9,880.6 433.3,864.5" fill="none" stroke="#2a2724" stroke-width="10.09" stroke-linecap="butt" stroke-linejoin="round" opacity="0.504"></path><path d="M440.9,923.2Q395.1,914.0 334.5,921.7" fill="none" stroke="#2a2724" stroke-width="10.09" stroke-linecap="butt" stroke-linejoin="round" opacity="0.504"></path><path d="M365.8,889.6Q361.5,890.2 369.3,896.3Q372.7,890.1 371.7,892.5Q366.0,890.0 366.2,893.2Q366.9,899.4 366.2,896.0Q364.6,895.3 365.0,899.0Q366.2,896.1 356.2,893.5Q364.2,901.7 355.8,895.2Q358.2,901.2 355.1,894.2Q348.3,895.6 353.7,893.8Q351.0,900.3 355.0,897.5Q347.8,888.6 352.2,889.8Q344.2,899.1 347.2,896.5Q348.8,887.7 351.8,894.2Q350.0,886.7 353.6,888.5Q353.2,881.8 352.2,883.2Q345.9,882.8 349.6,886.3Q360.1,887.5 356.2,887.0Q353.6,879.1 357.2,881.7Q357.4,884.2 359.3,877.8Q362.5,887.5 358.9,883.1Q364.0,886.6 364.7,881.2Q367.2,881.9 362.8,877.6Q368.2,880.0 362.2,886.0Q366.5,889.7 366.7,890.4Q368.9,882.2 365.6,886.3Q372.2,889.3 372.2,891.4Z" fill="none" stroke="#2a2724" stroke-width="11.47" stroke-linecap="butt" stroke-linejoin="round" opacity="0.84"></path><path d="M361.8,887.7Q368.8,889.8 369.5,898.1Q375.6,888.5 370.8,898.4Q357.7,897.5 365.6,889.0Q372.4,901.5 364.4,901.0Q365.2,897.7 363.7,897.8Q352.8,889.7 358.9,903.3Q354.1,898.7 352.9,894.6Q360.8,897.1 354.8,899.2Q349.7,896.3 360.6,893.1Q360.4,888.2 359.0,891.6Q347.2,885.3 348.1,890.1Q355.6,891.4 345.1,889.5Q341.5,893.3 346.5,885.8Q342.6,893.0 356.5,888.6Q356.6,891.5 345.7,886.3Q347.0,880.2 349.2,885.1Q356.8,874.1 352.7,888.3Q362.4,875.2 356.0,878.4Q366.3,890.3 354.4,881.7Q365.3,879.3 364.2,884.3Q356.2,888.7 367.1,887.7Q362.9,872.3 359.3,882.1Q364.4,880.3 360.0,882.4Q372.6,886.4 362.4,887.7Q371.2,880.8 370.9,885.6Q361.2,889.7 363.4,893.6Z" fill="none" stroke="#2a2724" stroke-width="7.57" stroke-linecap="butt" stroke-linejoin="round" opacity="0.504"></path><path d="M442.2,917.7Q450.2,919.4 456.3,930.2" fill="none" stroke="#8f8c83" stroke-width="12.74" stroke-linecap="butt" stroke-linejoin="round" opacity="0.462"></path><path d="M439.4,921.8Q444.6,918.2 456.4,923.0" fill="none" stroke="#8f8c83" stroke-width="8.41" stroke-linecap="butt" stroke-linejoin="round" opacity="0.277"></path></g><path d="M598.5,1074.9Q625.5,1040.9 671.0,1010.5" fill="none" stroke="#2a2724" stroke-width="22.93" stroke-linecap="butt" stroke-linejoin="round" opacity="0.84"></path><path d="M792.6,961.3Q845.1,976.1 897.0,967.8" fill="none" stroke="#2a2724" stroke-width="22.93" stroke-linecap="butt" stroke-linejoin="round" opacity="0.84"></path><path d="M614.4,1066.5Q645.7,1040.5 684.2,1001.4" fill="none" stroke="#2a2724" stroke-width="15.14" stroke-linecap="butt" stroke-linejoin="round" opacity="0.504"></path><path d="M786.9,976.0Q852.8,971.9 909.5,947.5" fill="none" stroke="#2a2724" stroke-width="15.14" stroke-linecap="butt" stroke-linejoin="round" opacity="0.504"></path><path d="M1030.0,969.6Q1078.6,961.5 1141.1,981.2" fill="none" stroke="#2a2724" stroke-width="22.93" stroke-linecap="butt" stroke-linejoin="round" opacity="0.84"></path><path d="M1252.8,1037.6Q1289.0,1065.9 1296.3,1083.2" fill="none" stroke="#2a2724" stroke-width="22.93" stroke-linecap="butt" stroke-linejoin="round" opacity="0.84"></path><path d="M1024.3,966.4Q1073.8,974.6 1156.9,998.2" fill="none" stroke="#2a2724" stroke-width="15.14" stroke-linecap="butt" stroke-linejoin="round" opacity="0.504"></path><path d="M1238.6,1033.3Q1284.6,1043.6 1307.2,1075.0" fill="none" stroke="#2a2724" stroke-width="15.14" stroke-linecap="butt" stroke-linejoin="round" opacity="0.504"></path><path d="M1108.6,751.6Q1101.4,773.2 1117.1,807.1Q1109.7,834.4 1099.7,845.0Q1079.6,867.4 1088.0,879.8Q1072.2,887.4 1049.6,916.5Q1053.7,929.3 1023.9,923.2Q995.4,953.9 982.3,942.3Q978.6,954.3 954.9,937.7Q925.9,932.2 900.3,939.7Q896.3,923.7 883.7,924.5Q873.8,888.1 839.2,896.8Q833.4,873.6 820.8,863.0Q817.2,824.9 810.5,801.8" fill="none" stroke="#2a2724" stroke-width="22.93" stroke-linecap="butt" stroke-linejoin="round" opacity="0.84"></path><path d="M833.0,728.5Q829.3,723.2 851.0,684.0Q865.9,693.7 868.1,661.0Q902.5,643.4 901.6,654.7Q927.2,641.4 951.4,641.3Q959.3,644.0 974.3,623.7Q998.1,639.1 1015.7,644.8Q1048.5,665.8 1045.5,657.9Q1075.6,692.5 1082.5,700.0Q1088.5,723.5 1110.0,721.7Q1107.1,756.6 1100.4,778.2Q1118.1,802.2 1102.9,812.7Q1108.4,847.9 1104.2,864.8" fill="none" stroke="#2a2724" stroke-width="22.93" stroke-linecap="butt" stroke-linejoin="round" opacity="0.84"></path><path d="M1119.8,775.1Q1114.7,778.2 1097.8,817.7Q1108.0,835.5 1090.2,848.9Q1089.8,877.6 1078.8,871.0Q1053.0,897.6 1047.2,899.7Q1033.0,910.2 1011.5,934.4Q986.4,944.6 972.0,932.6Q959.6,954.6 959.3,934.3Q923.6,928.8 917.4,940.9Q872.8,909.2 882.3,909.5Q864.2,918.0 833.5,888.0Q839.8,859.8 835.7,858.4Q822.5,821.7 801.0,804.0" fill="none" stroke="#2a2724" stroke-width="15.14" stroke-linecap="butt" stroke-linejoin="round" opacity="0.504"></path><path d="M824.5,733.1Q827.3,696.0 828.3,705.1Q860.5,682.6 874.7,666.3Q886.1,665.1 900.7,644.0Q911.6,645.5 956.5,622.7Q954.7,649.2 974.8,625.9Q996.9,634.8 1025.9,648.0Q1025.7,665.8 1048.0,670.8Q1070.5,667.3 1096.6,684.4Q1087.8,697.9 1088.0,742.2Q1092.2,759.9 1110.4,761.1Q1094.4,797.1 1103.6,813.6Q1112.2,826.8 1091.4,860.3" fill="none" stroke="#2a2724" stroke-width="15.14" stroke-linecap="butt" stroke-linejoin="round" opacity="0.504"></path><path d="M911.7,934.9Q898.1,952.3 911.7,968.5" fill="none" stroke="#2a2724" stroke-width="17.84" stroke-linecap="butt" stroke-linejoin="round" opacity="0.84"></path><path d="M900.9,928.5Q899.8,941.9 900.1,959.5" fill="none" stroke="#2a2724" stroke-width="11.77" stroke-linecap="butt" stroke-linejoin="round" opacity="0.504"></path><path d="M1004.9,928.7Q1015.1,938.8 1010.5,966.6" fill="none" stroke="#2a2724" stroke-width="17.84" stroke-linecap="butt" stroke-linejoin="round" opacity="0.84"></path><path d="M1013.8,933.5Q995.7,954.4 1006.6,955.7" fill="none" stroke="#2a2724" stroke-width="11.77" stroke-linecap="butt" stroke-linejoin="round" opacity="0.504"></path><path d="M958.3,636.7Q947.4,607.1 933.7,597.8Q948.5,612.1 973.5,612.8Q966.2,641.7 968.1,639.7" fill="none" stroke="#2a2724" stroke-width="17.84" stroke-linecap="butt" stroke-linejoin="round" opacity="0.84"></path><path d="M944.8,641.2Q954.7,613.4 923.7,586.2Q957.6,606.4 980.6,623.0Q967.5,623.2 971.4,643.1" fill="none" stroke="#2a2724" stroke-width="11.77" stroke-linecap="butt" stroke-linejoin="round" opacity="0.504"></path></g></svg>