<svg xmlns="http://www.w3.org/2000/svg" width="3840" height="2160" viewBox="0 0 1920 1080"><g transform="translate(0.00,0.00) scale(1.0000)"><path d="M-46.0,867.3Q966.5,858.1 1962.1,850.3" fill="none" stroke="#2a2724" stroke-width="14.88" stroke-linecap="butt" stroke-linejoin="round" opacity="0.672"></path><path d="M-52.6,875.2Q967.3,865.0 1973.2,857.0" fill="none" stroke="#2a2724" stroke-width="9.82" stroke-linecap="butt" stroke-linejoin="round" opacity="0.403"></path><path d="M-31.2,58.8Q87.3,107.2 202.9,163.2" fill="none" stroke="#8f8c83" stroke-width="9.92" stroke-linecap="butt" stroke-linejoin="round" opacity="0.37"></path><path d="M-34.9,52.9Q78.3,121.0 191.6,172.4" fill="none" stroke="#8f8c83" stroke-width="6.55" stroke-linecap="butt" stroke-linejoin="round" opacity="0.222"></path><path d="M18.0,142.7Q135.0,191.1 233.8,250.6" fill="none" stroke="#8f8c83" stroke-width="9.92" stroke-linecap="butt" stroke-linejoin="round" opacity="0.319"></path><path d="M5.4,142.2Q134.8,184.7 233.0,248.1" fill="none" stroke="#8f8c83" stroke-width="6.55" stroke-linecap="butt" stroke-linejoin="round" opacity="0.192"></path><path d="M52.9,213.2Q166.8,273.1 284.6,328.5" fill="none" stroke="#8f8c83" stroke-width="9.92" stroke-linecap="butt" stroke-linejoin="round" opacity="0.269"></path><path d="M56.8,218.5Q157.6,269.2 281.4,330.4" fill="none" stroke="#8f8c83" stroke-width="6.55" stroke-linecap="butt" stroke-linejoin="round" opacity="0.161"></path><path d="M220.8,171.6Q213.7,187.5 207.2,193.2Q213.5,208.9 204.2,209.0Q205.9,209.4 190.5,223.5Q196.7,229.6 189.6,223.4Q173.6,239.9 169.4,238.9Q163.3,231.4 157.9,235.7Q142.2,235.4 134.0,243.0Q122.6,236.6 123.2,243.9Q114.2,234.3 103.6,230.2Q94.5,235.1 102.9,217.7Q87.3,208.7 96.6,201.3" fill="none" stroke="#2a2724" stroke-width="19.84" stroke-linecap="butt" stroke-linejoin="round" opacity="0.84"></path><path d="M76.5,180.8Q89.0,170.2 89.5,155.5Q90.6,150.4 87.3,142.5Q93.3,133.3 105.0,125.9Q106.8,129.6 111.4,120.7Q126.2,109.7 127.4,108.6Q132.3,105.7 137.6,105.1Q151.3,109.4 158.5,111.3Q157.6,108.2 173.5,107.4Q181.4,117.8 181.3,119.9Q186.5,119.5 199.7,132.3Q194.8,141.8 207.8,151.2Q205.5,158.0 215.1,160.2Q204.4,177.9 207.9,174.6" fill="none" stroke="#2a2724" stroke-width="19.84" stroke-linecap="butt" stroke-linejoin="round" opacity="0.84"></path><path d="M207.0,181.6Q214.5,191.2 211.1,182.4Q200.1,186.7 199.0,208.8Q198.4,209.8 198.2,212.0Q180.1,229.3 179.2,238.5Q173.8,224.5 164.7,228.2Q173.8,239.1 154.9,250.3Q143.3,237.8 133.5,237.7Q127.2,237.8 118.8,243.8Q115.8,241.8 114.5,231.1Q110.0,219.6 105.2,213.6Q101.3,223.1 84.7,212.7" fill="none" stroke="#2a2724" stroke-width="13.09" stroke-linecap="butt" stroke-linejoin="round" opacity="0.504"></path><path d="M72.3,167.4Q71.0,165.9 82.0,163.1Q86.1,156.3 81.4,144.9Q88.4,138.1 93.6,135.2Q117.4,125.8 107.3,128.4Q129.6,109.3 117.6,109.0Q138.4,119.9 146.0,107.0Q146.1,97.5 150.9,111.7Q166.9,114.7 176.6,107.6Q187.5,111.4 185.7,127.0Q202.7,135.6 191.2,139.1Q213.2,135.4 215.1,145.4Q216.8,143.4 203.0,160.9Q212.2,175.2 222.7,166.6" fill="none" stroke="#2a2724" stroke-width="13.09" stroke-linecap="butt" stroke-linejoin="round" opacity="0.504"></path><path d="M205.6,176.7Q211.5,189.4 207.9,187.6Q199.6,192.0 194.3,205.0Q202.8,210.0 192.9,214.3Q181.7,223.6 182.0,219.6Q169.6,230.0 169.4,231.6Q158.2,227.7 157.3,233.2Q145.6,240.2 140.6,228.3Q132.8,223.9 128.8,225.7Q119.3,223.2 115.6,225.3Q104.9,216.6 109.7,218.9Q96.5,209.8 99.5,202.7Q91.6,190.1 96.3,187.2Q90.8,181.4 89.3,174.9Q89.7,176.5 97.9,159.3" fill="none" stroke="#8f8c83" stroke-width="9.92" stroke-linecap="butt" stroke-linejoin="round" opacity="0.554"></path><path d="M104.9,135.4Q108.9,135.3 112.0,134.2Q129.0,120.9 125.8,123.3Q138.4,125.3 141.6,118.1Q154.3,112.2 150.5,122.5Q156.3,120.2 164.7,126.3Q169.4,121.3 178.8,131.3Q178.2,134.9 191.1,141.0Q194.0,151.3 195.7,146.6Q194.9,149.6 205.4,160.0Q204.2,162.6 203.4,174.7" fill="none" stroke="#8f8c83" stroke-width="9.92" stroke-linecap="butt" stroke-linejoin="round" opacity="0.554"></path><path d="M210.0,173.6Q203.8,181.7 211.3,193.1Q191.2,198.4 205.0,203.6Q184.6,214.3 195.3,206.6Q184.5,222.4 177.7,222.8Q166.2,229.1 163.2,222.5Q166.1,222.5 161.4,233.1Q154.2,242.8 148.4,237.1Q135.7,222.1 123.3,227.8Q118.6,228.6 117.9,218.2Q114.3,222.0 98.0,216.4Q106.6,210.2 98.9,203.3Q96.7,188.2 90.8,185.5Q88.5,186.7 87.3,173.6Q98.3,175.5 91.3,167.7" fill="none" stroke="#8f8c83" stroke-width="6.55" stroke-linecap="butt" stroke-linejoin="round" opacity="0.333"></path><path d="M106.4,135.1Q107.0,135.0 122.7,135.6Q126.2,116.9 129.2,121.7Q143.1,116.8 134.8,126.5Q144.9,119.1 155.5,124.1Q164.1,114.9 170.0,116.3Q167.7,128.4 175.4,126.0Q192.3,136.3 190.9,140.5Q191.6,148.5 199.7,149.2Q204.2,145.0 200.0,156.6Q213.2,159.4 208.8,172.0" fill="none" stroke="#8f8c83" stroke-width="6.55" stroke-linecap="butt" stroke-linejoin="round" opacity="0.333"></path><path d="M197.6,176.4Q192.3,176.8 190.1,173.0" fill="none" stroke="#2a2724" stroke-width="13.39" stroke-linecap="butt" stroke-linejoin="round" opacity="0.84"></path><path d="M201.8,177.5Q194.0,178.4 192.4,173.2" fill="none" stroke="#2a2724" stroke-width="8.84" stroke-linecap="butt" stroke-linejoin="round" opacity="0.504"></path><path d="M191.4,201.0Q193.3,196.6 183.7,195.0" fill="none" stroke="#2a2724" stroke-width="8.43" stroke-linecap="butt" stroke-linejoin="round" opacity="0.84"></path><path d="M191.9,199.7Q183.4,198.5 188.2,197.1" fill="none" stroke="#2a2724" stroke-width="5.57" stroke-linecap="butt" stroke-linejoin="round" opacity="0.504"></path><path d="M173.2,215.9Q172.5,219.6 167.0,216.2" fill="none" stroke="#2a2724" stroke-width="8.43" stroke-linecap="butt" stroke-linejoin="round" opacity="0.84"></path><path d="M170.7,215.2Q170.7,218.9 166.3,218.5" fill="none" stroke="#2a2724" stroke-width="5.57" stroke-linecap="butt" stroke-linejoin="round" opacity="0.504"></path><path d="M144.6,222.6Q144.6,218.8 145.8,214.4" fill="none" stroke="#2a2724" stroke-width="13.39" stroke-linecap="butt" stroke-linejoin="round" opacity="0.84"></path><path d="M146.4,227.6Q144.4,227.0 150.5,219.7" fill="none" stroke="#2a2724" stroke-width="8.84" stroke-linecap="butt" stroke-linejoin="round" opacity="0.504"></path><path d="M120.8,221.3Q127.8,217.4 128.4,217.9" fill="none" stroke="#2a2724" stroke-width="8.43" stroke-linecap="butt" stroke-linejoin="round" opacity="0.84"></path><path d="M123.9,216.1Q124.4,214.8 129.0,212.1" fill="none" stroke="#2a2724" stroke-width="5.57" stroke-linecap="butt" stroke-linejoin="round" opacity="0.504"></path><path d="M107.2,204.5Q106.7,199.0 105.6,199.0" fill="none" stroke="#2a2724" stroke-width="8.43" stroke-linecap="butt" stroke-linejoin="round" opacity="0.84"></path><path d="M100.9,196.3Q108.7,203.7 113.9,198.5" fill="none" stroke="#2a2724" stroke-width="5.57" stroke-linecap="butt" stroke-linejoin="round" opacity="0.504"></path><path d="M94.8,178.4Q102.6,173.2 106.7,175.2" fill="none" stroke="#2a2724" stroke-width="13.39" stroke-linecap="butt" stroke-linejoin="round" opacity="0.84"></path><path d="M93.1,176.9Q100.9,179.7 103.7,176.8" fill="none" stroke="#2a2724" stroke-width="8.84" stroke-linecap="butt" stroke-linejoin="round" opacity="0.504"></path><path d="M106.5,154.2Q109.4,148.2 106.5,155.3" fill="none" stroke="#2a2724" stroke-width="8.43" stroke-linecap="butt" stroke-linejoin="round" opacity="0.84"></path><path d="M106.8,152.5Q104.2,158.4 107.9,158.1" fill="none" stroke="#2a2724" stroke-width="5.57" stroke-linecap="butt" stroke-linejoin="round" opacity="0.504"></path><path d="M121.6,135.7Q120.7,130.5 126.9,139.0" fill="none" stroke="#2a2724" stroke-width="8.43" stroke-linecap="butt" stroke-linejoin="round" opacity="0.84"></path><path d="M126.3,129.3Q128.1,130.7 129.7,140.5" fill="none" stroke="#2a2724" stroke-width="5.57" stroke-linecap="butt" stroke-linejoin="round" opacity="0.504"></path><path d="M149.9,122.4Q145.7,126.4 149.4,133.0" fill="none" stroke="#2a2724" stroke-width="13.39" stroke-linecap="butt" stroke-linejoin="round" opacity="0.84"></path><path d="M148.0,127.9Q150.6,131.8 143.2,133.0" fill="none" stroke="#2a2724" stroke-width="8.84" stroke-linecap="butt" stroke-linejoin="round" opacity="0.504"></path><path d="M173.4,129.2Q174.1,133.5 170.5,135.3" fill="none" stroke="#2a2724" stroke-width="8.43" stroke-linecap="butt" stroke-linejoin="round" opacity="0.84"></path><path d="M173.5,135.1Q176.0,134.4 173.6,140.6" fill="none" stroke="#2a2724" stroke-width="5.57" stroke-linecap="butt" stroke-linejoin="round" opacity="0.504"></path><path d="M194.2,148.6Q190.9,148.4 189.0,151.6" fill="none" stroke="#2a2724" stroke-width="8.43" stroke-linecap="butt" stroke-linejoin="round" opacity="0.84"></path><path d="M195.5,152.5Q190.9,148.6 189.8,154.2" fill="none" stroke="#2a2724" stroke-width="5.57" stroke-linecap="butt" stroke-linejoin="round" opacity="0.504"></path><path d="M154.6,177.9Q154.7,175.2 152.2,179.1Q150.6,178.5 153.0,178.6Q151.3,178.1 152.8,178.0Q152.8,175.9 149.7,180.4Q153.6,183.5 148.5,179.0Q146.7,177.1 149.9,183.4Q151.5,182.4 144.5,180.6Q146.0,181.7 148.0,183.4Q145.3,179.5 148.0,182.9Q142.4,178.8 141.4,180.0Q146.3,178.3 143.3,177.0Q143.3,178.7 140.5,178.2Q144.7,179.3 143.7,178.3Q144.2,179.0 145.4,176.5Q143.9,176.9 145.7,173.5Q147.8,172.7 142.5,169.7Q140.4,170.4 146.4,173.1Q146.9,167.9 149.0,168.8Q148.2,170.7 144.9,168.1Q147.6,172.4 150.1,171.5Q150.8,169.9 147.2,169.0Q147.8,167.6 153.3,173.7Q153.7,176.5 149.1,170.7Q151.6,171.0 150.7,172.0Q151.8,177.0 150.2,176.5Q149.6,173.4 155.4,173.8Z" fill="none" stroke="#2a2724" stroke-width="9.92" stroke-linecap="butt" stroke-linejoin="round" opacity="0.84"></path><path d="M153.3,173.2Q157.3,173.5 154.6,175.7Q149.8,174.1 154.2,181.9Q157.1,173.9 151.9,182.9Q156.9,177.4 154.5,179.4Q154.0,182.7 153.9,178.3Q151.7,176.5 148.4,180.9Q149.2,182.3 143.5,184.1Q145.9,178.0 143.6,181.3Q149.8,185.8 146.5,184.3Q139.8,175.5 140.4,181.5Q146.5,184.6 141.8,176.9Q137.9,174.2 146.1,176.2Q144.6,171.8 143.4,173.1Q145.6,177.8 144.9,176.9Q145.4,175.2 144.3,172.3Q140.2,174.4 144.3,172.6Q147.9,170.8 141.6,171.4Q147.4,176.4 150.0,170.2Q149.3,171.6 151.2,166.9Q146.3,165.5 149.2,174.3Q151.3,170.0 146.9,175.2Q147.7,176.2 151.1,175.3Q151.8,173.3 149.0,172.2Q155.9,170.4 148.5,176.3Q150.4,171.0 155.7,177.3Q153.2,174.4 150.7,174.6Z" fill="none" stroke="#2a2724" stroke-width="6.55" stroke-linecap="butt" stroke-linejoin="round" opacity="0.504"></path><path d="M194.7,218.6Q219.5,234.2 233.8,243.4" fill="none" stroke="#8f8c83" stroke-width="12.40" stroke-linecap="butt" stroke-linejoin="round" opacity="0.462"></path><path d="M197.1,223.0Q220.6,240.2 234.0,242.8" fill="none" stroke="#8f8c83" stroke-width="8.18" stroke-linecap="butt" stroke-linejoin="round" opacity="0.277"></path><path d="M1623.4,220.7Q1769.5,223.4 1914.8,211.7" fill="none" stroke="#2a2724" stroke-width="17.36" stroke-linecap="butt" stroke-linejoin="round" opacity="0.84"></path><path d="M1622.8,211.4Q1776.5,205.3 1909.1,220.1" fill="none" stroke="#2a2724" stroke-width="11.46" stroke-linecap="butt" stroke-linejoin="round" opacity="0.504"></path><path d="M1623.8,228.8Q1771.5,235.4 1909.4,224.1" fill="none" stroke="#8f8c83" stroke-width="9.92" stroke-linecap="butt" stroke-linejoin="round" opacity="0.462"></path><path d="M1628.7,236.2Q1769.5,230.8 1918.1,229.8" fill="none" stroke="#8f8c83" stroke-width="6.55" stroke-linecap="butt" stroke-linejoin="round" opacity="0.277"></path><path d="M1642.3,214.6Q1649.4,244.4 1646.5,259.1" fill="none" stroke="#2a2724" stroke-width="12.40" stroke-linecap="butt" stroke-linejoin="round" opacity="0.672"></path><path d="M1643.4,213.2Q1639.7,238.0 1644.8,265.5" fill="none" stroke="#2a2724" stroke-width="8.18" stroke-linecap="butt" stroke-linejoin="round" opacity="0.403"></path><path d="M1895.1,212.6Q1885.9,246.9 1900.6,261.6" fill="none" stroke="#2a2724" stroke-width="12.40" stroke-linecap="butt" stroke-linejoin="round" opacity="0.672"></path><path d="M1887.5,214.4Q1897.9,232.2 1895.1,258.0" fill="none" stroke="#2a2724" stroke-width="8.18" stroke-linecap="butt" stroke-linejoin="round" opacity="0.403"></path><path d="M1648.6,212.7Q1641.2,183.2 1646.9,135.7Q1654.4,142.0 1674.0,131.9Q1672.4,174.7 1683.4,217.0" fill="none" stroke="#2a2724" stroke-width="12.40" stroke-linecap="butt" stroke-linejoin="round" opacity="0.84"></path><path d="M1655.2,224.6Q1638.3,169.7 1643.3,130.6Q1662.9,132.4 1666.9,130.0Q1673.5,174.4 1678.2,222.8" fill="none" stroke="#2a2724" stroke-width="8.18" stroke-linecap="butt" stroke-linejoin="round" opacity="0.504"></path><path d="M1649.4,169.4Q1660.2,178.4 1670.3,180.4" fill="none" stroke="#8f8c83" stroke-width="9.92" stroke-linecap="butt" stroke-linejoin="round" opacity="0.605"></path><path d="M1657.4,174.9Q1653.3,180.4 1673.0,183.1" fill="none" stroke="#8f8c83" stroke-width="6.55" stroke-linecap="butt" stroke-linejoin="round" opacity="0.363"></path><path d="M1687.1,214.3Q1674.4,168.9 1675.9,125.1" fill="none" stroke="#2a2724" stroke-width="12.40" stroke-linecap="butt" stroke-linejoin="round" opacity="0.84"></path><path d="M1721.0,121.9Q1724.4,164.7 1716.6,223.6" fill="none" stroke="#2a2724" stroke-width="12.40" stroke-linecap="butt" stroke-linejoin="round" opacity="0.84"></path><path d="M1684.8,216.2Q1682.8,161.1 1673.3,122.3" fill="none" stroke="#2a2724" stroke-width="8.18" stroke-linecap="butt" stroke-linejoin="round" opacity="0.504"></path><path d="M1712.9,122.4Q1714.6,162.1 1723.0,225.4" fill="none" stroke="#2a2724" stroke-width="8.18" stroke-linecap="butt" stroke-linejoin="round" opacity="0.504"></path><path d="M1693.2,156.7Q1700.8,167.5 1714.9,168.2" fill="none" stroke="#8f8c83" stroke-width="9.92" stroke-linecap="butt" stroke-linejoin="round" opacity="0.605"></path><path d="M1689.7,152.7Q1704.7,159.9 1718.1,168.6" fill="none" stroke="#8f8c83" stroke-width="6.55" stroke-linecap="butt" stroke-linejoin="round" opacity="0.363"></path><path d="M1731.3,216.0Q1723.2,174.7 1719.5,124.2" fill="none" stroke="#2a2724" stroke-width="12.40" stroke-linecap="butt" stroke-linejoin="round" opacity="0.84"></path><path d="M1771.0,118.1Q1775.4,174.0 1779.7,215.7" fill="none" stroke="#2a2724" stroke-width="12.40" stroke-linecap="butt" stroke-linejoin="round" opacity="0.84"></path><path d="M1723.6,225.7Q1725.2,179.7 1721.0,123.4" fill="none" stroke="#2a2724" stroke-width="8.18" stroke-linecap="butt" stroke-linejoin="round" opacity="0.504"></path><path d="M1764.8,126.5Q1780.2,165.3 1770.0,218.8" fill="none" stroke="#2a2724" stroke-width="8.18" stroke-linecap="butt" stroke-linejoin="round" opacity="0.504"></path><path d="M1732.0,163.3Q1752.5,163.2 1764.2,170.2" fill="none" stroke="#8f8c83" stroke-width="9.92" stroke-linecap="butt" stroke-linejoin="round" opacity="0.605"></path><path d="M1729.1,161.5Q1757.4,162.4 1767.0,171.8" fill="none" stroke="#8f8c83" stroke-width="6.55" stroke-linecap="butt" stroke-linejoin="round" opacity="0.363"></path><path d="M1782.4,212.6Q1783.0,184.0 1785.6,138.4Q1808.5,148.0 1833.6,146.8Q1831.0,179.8 1824.6,216.1" fill="none" stroke="#2a2724" stroke-width="12.40" stroke-linecap="butt" stroke-linejoin="round" opacity="0.84"></path><path d="M1781.1,210.7Q1791.3,171.8 1792.7,142.6Q1806.4,130.5 1835.6,135.2Q1834.4,177.2 1818.6,221.0" fill="none" stroke="#2a2724" stroke-width="8.18" stroke-linecap="butt" stroke-linejoin="round" opacity="0.504"></path><path d="M1794.7,176.7Q1808.5,178.2 1810.5,179.3" fill="none" stroke="#8f8c83" stroke-width="9.92" stroke-linecap="butt" stroke-linejoin="round" opacity="0.605"></path><path d="M1788.0,177.7Q1803.9,186.6 1821.0,184.5" fill="none" stroke="#8f8c83" stroke-width="6.55" stroke-linecap="butt" stroke-linejoin="round" opacity="0.363"></path><path d="M1834.7,221.3Q1824.3,172.7 1823.4,140.9Q1840.6,138.8 1857.5,142.3Q1867.3,180.4 1862.2,223.6" fill="none" stroke="#2a2724" stroke-width="12.40" stroke-linecap="butt" stroke-linejoin="round" opacity="0.84"></path><path d="M1836.7,216.0Q1820.7,186.0 1823.0,144.4Q1837.9,137.1 1861.8,141.5Q1857.3,175.7 1869.5,218.9" fill="none" stroke="#2a2724" stroke-width="8.18" stroke-linecap="butt" stroke-linejoin="round" opacity="0.504"></path><path d="M1837.3,172.1Q1851.7,170.2 1857.1,180.5" fill="none" stroke="#8f8c83" stroke-width="9.92" stroke-linecap="butt" stroke-linejoin="round" opacity="0.605"></path><path d="M1836.7,175.2Q1847.4,178.8 1859.5,187.7" fill="none" stroke="#8f8c83" stroke-width="6.55" stroke-linecap="butt" stroke-linejoin="round" opacity="0.363"></path><path d="M1732.3,123.9Q1799.8,119.0 1859.0,117.3" fill="none" stroke="#2a2724" stroke-width="12.40" stroke-linecap="butt" stroke-linejoin="round" opacity="0.84"></path><path d="M1860.7,139.0Q1798.2,136.5 1736.5,146.3" fill="none" stroke="#2a2724" stroke-width="12.40" stroke-linecap="butt" stroke-linejoin="round" opacity="0.84"></path><path d="M1744.7,120.0Q1800.1,126.3 1864.7,114.1" fill="none" stroke="#2a2724" stroke-width="8.18" stroke-linecap="butt" stroke-linejoin="round" opacity="0.504"></path><path d="M1857.5,141.0Q1800.9,138.1 1735.9,140.4" fill="none" stroke="#2a2724" stroke-width="8.18" stroke-linecap="butt" stroke-linejoin="round" opacity="0.504"></path><g transform="rotate(-8 1598.4 298.4)"><path d="M1569.0,264.4Q1598.8,271.0 1625.9,265.0Q1625.8,300.0 1632.6,328.3Q1601.7,330.1 1569.1,327.1Z" fill="#e8d98a" stroke="none" opacity="0.62"></path><path d="M1565.0,272.5Q1592.2,268.4 1634.3,261.6Q1635.2,288.1 1628.2,330.1Q1591.8,332.7 1571.6,327.4Z" fill="none" stroke="#2a2724" stroke-width="12.40" stroke-linecap="butt" stroke-linejoin="round" opacity="0.84"></path><path d="M1571.0,269.7Q1597.8,264.3 1630.9,265.5Q1637.0,287.6 1634.0,321.3Q1603.6,328.6 1562.5,321.6Z" fill="none" stroke="#2a2724" stroke-width="8.18" stroke-linecap="butt" stroke-linejoin="round" opacity="0.504"></path><path d="M1573.3,289.7Q1589.1,292.5 1615.0,287.8" fill="none" stroke="#8f8c83" stroke-width="12.40" stroke-linecap="butt" stroke-linejoin="round" opacity="0.689"></path><path d="M1578.1,290.6Q1589.4,283.0 1609.5,290.7" fill="none" stroke="#8f8c83" stroke-width="8.18" stroke-linecap="butt" stroke-linejoin="round" opacity="0.413"></path><path d="M1572.8,305.5Q1589.9,303.3 1601.7,300.4" fill="none" stroke="#8f8c83" stroke-width="9.92" stroke-linecap="butt" stroke-linejoin="round" opacity="0.487"></path><path d="M1584.1,302.1Q1590.1,311.1 1597.4,300.4" fill="none" stroke="#8f8c83" stroke-width="6.55" stroke-linecap="butt" stroke-linejoin="round" opacity="0.292"></path><path d="M1569.3,313.6Q1592.3,289.1 1623.3,276.2" fill="none" stroke="#ff5247" stroke-width="14.88" stroke-linecap="butt" stroke-linejoin="round" opacity="0.84"></path><path d="M1575.8,310.7Q1604.3,304.9 1632.9,279.8" fill="none" stroke="#ff5247" stroke-width="9.82" stroke-linecap="butt" stroke-linejoin="round" opacity="0.504"></path><path d="M1628.7,323.4Q1633.9,331.8 1650.2,332.0" fill="none" stroke="#8f8c83" stroke-width="12.40" stroke-linecap="butt" stroke-linejoin="round" opacity="0.462"></path><path d="M1637.1,321.3Q1635.6,323.9 1654.6,332.6" fill="none" stroke="#8f8c83" stroke-width="8.18" stroke-linecap="butt" stroke-linejoin="round" opacity="0.277"></path></g><path d="M452.3,142.9Q963.3,151.8 1482.4,154.3" fill="none" stroke="#2a2724" stroke-width="19.84" stroke-linecap="butt" stroke-linejoin="round" opacity="0.84"></path><path d="M447.9,152.8Q968.4,150.8 1475.9,144.0" fill="none" stroke="#2a2724" stroke-width="13.09" stroke-linecap="butt" stroke-linejoin="round" opacity="0.504"></path><path d="M1449.4,134.1Q1465.4,427.4 1461.9,723.0" fill="none" stroke="#2a2724" stroke-width="19.84" stroke-linecap="butt" stroke-linejoin="round" opacity="0.84"></path><path d="M1447.7,123.0Q1457.9,421.7 1448.6,716.3" fill="none" stroke="#2a2724" stroke-width="13.09" stroke-linecap="butt" stroke-linejoin="round" opacity="0.504"></path><path d="M1482.1,702.8Q967.5,687.0 449.2,699.1" fill="none" stroke="#2a2724" stroke-width="19.84" stroke-linecap="butt" stroke-linejoin="round" opacity="0.84"></path><path d="M1468.8,688.6Q951.1,706.3 454.7,689.6" fill="none" stroke="#2a2724" stroke-width="13.09" stroke-linecap="butt" stroke-linejoin="round" opacity="0.504"></path><path d="M464.8,714.3Q467.9,424.5 467.2,122.2" fill="none" stroke="#2a2724" stroke-width="19.84" stroke-linecap="butt" stroke-linejoin="round" opacity="0.84"></path><path d="M462.9,715.8Q459.4,412.2 469.7,135.5" fill="none" stroke="#2a2724" stroke-width="13.09" stroke-linecap="butt" stroke-linejoin="round" opacity="0.504"></path><path d="M544.8,217.1Q955.4,208.7 1388.6,217.1" fill="none" stroke="#2a2724" stroke-width="9.92" stroke-linecap="butt" stroke-linejoin="round" opacity="0.84"></path><path d="M546.0,219.1Q960.9,218.2 1386.3,213.7" fill="none" stroke="#2a2724" stroke-width="6.55" stroke-linecap="butt" stroke-linejoin="round" opacity="0.504"></path><path d="M1376.7,197.2Q1379.9,428.3 1370.7,641.6" fill="none" stroke="#2a2724" stroke-width="9.92" stroke-linecap="butt" stroke-linejoin="round" opacity="0.84"></path><path d="M1376.9,199.9Q1363.7,430.6 1376.7,651.7" fill="none" stroke="#2a2724" stroke-width="6.55" stroke-linecap="butt" stroke-linejoin="round" opacity="0.504"></path><path d="M1381.9,634.4Q965.5,631.7 541.0,637.6" fill="none" stroke="#2a2724" stroke-width="9.92" stroke-linecap="butt" stroke-linejoin="round" opacity="0.84"></path><path d="M1382.6,634.2Q959.9,635.3 548.1,633.5" fill="none" stroke="#2a2724" stroke-width="6.55" stroke-linecap="butt" stroke-linejoin="round" opacity="0.504"></path><path d="M549.0,640.6Q556.4,418.2 554.4,200.4" fill="none" stroke="#2a2724" stroke-width="9.92" stroke-linecap="butt" stroke-linejoin="round" opacity="0.84"></path><path d="M556.8,643.0Q543.6,416.2 556.1,200.2" fill="none" stroke="#2a2724" stroke-width="6.55" stroke-linecap="butt" stroke-linejoin="round" opacity="0.504"></path><path d="M957.0,692.1Q957.1,742.4 955.0,797.2" fill="none" stroke="#2a2724" stroke-width="24.80" stroke-linecap="butt" stroke-linejoin="round" opacity="0.84"></path><path d="M963.1,703.6Q965.3,737.5 966.0,797.7" fill="none" stroke="#2a2724" stroke-width="16.37" stroke-linecap="butt" stroke-linejoin="round" opacity="0.504"></path><path d="M789.5,798.2Q963.3,792.2 1137.2,792.8" fill="none" stroke="#2a2724" stroke-width="19.84" stroke-linecap="butt" stroke-linejoin="round" opacity="0.84"></path><path d="M781.6,806.4Q972.0,796.0 1135.2,799.5" fill="none" stroke="#2a2724" stroke-width="13.09" stroke-linecap="butt" stroke-linejoin="round" opacity="0.504"></path><path d="M-41.6,885.3Q956.0,882.2 1951.7,872.7" fill="none" stroke="#2a2724" stroke-width="19.84" stroke-linecap="butt" stroke-linejoin="round" opacity="0.84"></path><path d="M-37.8,873.7Q970.9,869.3 1959.2,874.8" fill="none" stroke="#2a2724" stroke-width="13.09" stroke-linecap="butt" stroke-linejoin="round" opacity="0.504"></path><path d="M1466.5,829.3Q1503.5,850.9 1550.7,866.8" fill="none" stroke="#8f8c83" stroke-width="12.40" stroke-linecap="butt" stroke-linejoin="round" opacity="0.462"></path><path d="M1464.3,825.7Q1500.5,857.7 1547.3,864.9" fill="none" stroke="#8f8c83" stroke-width="8.18" stroke-linecap="butt" stroke-linejoin="round" opacity="0.277"></path><path d="M260.1,851.0Q299.5,854.4 335.2,846.5Q336.8,875.4 330.3,909.1Q302.1,905.9 265.5,908.1Z" fill="#c98b52" stroke="none" opacity="0.42"></path><path d="M267.3,851.0Q300.5,850.9 341.7,845.0Q326.2,878.7 330.7,913.7Q299.2,917.0 267.9,912.6Z" fill="none" stroke="#2a2724" stroke-width="14.88" stroke-linecap="butt" stroke-linejoin="round" opacity="0.84"></path><path d="M263.9,852.9Q300.3,840.9 337.4,850.2Q337.3,883.1 337.1,916.0Q290.6,918.7 266.8,904.8Z" fill="none" stroke="#2a2724" stroke-width="9.82" stroke-linecap="butt" stroke-linejoin="round" opacity="0.504"></path><path d="M333.9,863.2Q342.3,865.1 367.0,869.8Q366.1,875.0 361.7,894.7Q349.7,900.3 336.4,896.4" fill="none" stroke="#2a2724" stroke-width="12.40" stroke-linecap="butt" stroke-linejoin="round" opacity="0.84"></path><path d="M331.9,867.3Q353.1,863.0 362.6,863.6Q357.4,883.1 349.9,889.1Q348.0,891.7 342.2,897.1" fill="none" stroke="#2a2724" stroke-width="8.18" stroke-linecap="butt" stroke-linejoin="round" opacity="0.504"></path><path d="M294.4,832.1Q291.6,808.5 274.2,809.3Q283.3,799.6 287.4,777.7" fill="none" stroke="#8f8c83" stroke-width="9.92" stroke-linecap="butt" stroke-linejoin="round" opacity="0.84"></path><path d="M279.6,824.5Q286.5,823.5 271.4,811.8Q299.3,781.2 280.2,786.7" fill="none" stroke="#8f8c83" stroke-width="6.55" stroke-linecap="butt" stroke-linejoin="round" opacity="0.504"></path><path d="M321.8,839.7Q305.9,828.3 306.4,810.7Q311.5,789.7 309.5,784.5" fill="none" stroke="#8f8c83" stroke-width="9.92" stroke-linecap="butt" stroke-linejoin="round" opacity="0.84"></path><path d="M314.3,825.5Q318.2,808.2 312.1,795.8Q312.6,807.4 316.7,776.7" fill="none" stroke="#8f8c83" stroke-width="6.55" stroke-linecap="butt" stroke-linejoin="round" opacity="0.504"></path><path d="M1538.0,874.8Q1620.8,864.9 1685.0,861.2" fill="none" stroke="#2a2724" stroke-width="9.92" stroke-linecap="butt" stroke-linejoin="round" opacity="0.84"></path><path d="M1535.1,875.7Q1610.5,860.1 1693.2,863.5" fill="none" stroke="#2a2724" stroke-width="6.55" stroke-linecap="butt" stroke-linejoin="round" opacity="0.504"></path><path d="M1678.1,867.1Q1680.9,883.2 1665.7,889.8Q1598.4,886.5 1543.7,886.6Q1538.2,878.3 1545.2,873.1" fill="none" stroke="#2a2724" stroke-width="9.92" stroke-linecap="butt" stroke-linejoin="round" opacity="0.84"></path><path d="M1686.6,867.6Q1685.4,870.7 1669.3,879.8Q1604.2,895.9 1537.3,889.3Q1544.9,891.1 1546.0,873.9" fill="none" stroke="#2a2724" stroke-width="6.55" stroke-linecap="butt" stroke-linejoin="round" opacity="0.504"></path><path d="M1530.9,840.5Q1619.0,849.7 1690.3,841.5" fill="none" stroke="#2a2724" stroke-width="9.92" stroke-linecap="butt" stroke-linejoin="round" opacity="0.84"></path><path d="M1542.6,846.0Q1601.4,846.6 1693.3,837.4" fill="none" stroke="#2a2724" stroke-width="6.55" stroke-linecap="butt" stroke-linejoin="round" opacity="0.504"></path><path d="M1675.4,838.3Q1676.9,848.0 1666.7,861.4Q1599.5,862.9 1538.9,857.5Q1536.4,849.6 1550.3,841.5" fill="none" stroke="#2a2724" stroke-width="9.92" stroke-linecap="butt" stroke-linejoin="round" opacity="0.84"></path><path d="M1682.1,834.0Q1664.7,856.5 1666.9,854.8Q1600.9,861.4 1531.2,859.2Q1541.0,851.9 1552.6,852.0" fill="none" stroke="#2a2724" stroke-width="6.55" stroke-linecap="butt" stroke-linejoin="round" opacity="0.504"></path><path d="M1535.4,818.3Q1612.1,821.7 1692.3,814.5" fill="none" stroke="#2a2724" stroke-width="9.92" stroke-linecap="butt" stroke-linejoin="round" opacity="0.84"></path><path d="M1531.4,819.3Q1624.8,813.8 1681.7,816.7" fill="none" stroke="#2a2724" stroke-width="6.55" stroke-linecap="butt" stroke-linejoin="round" opacity="0.504"></path><path d="M1677.2,814.2Q1683.4,820.0 1673.9,832.8Q1600.8,827.0 1540.6,828.8Q1534.9,832.1 1550.4,824.8" fill="none" stroke="#2a2724" stroke-width="9.92" stroke-linecap="butt" stroke-linejoin="round" opacity="0.84"></path><path d="M1681.7,811.5Q1685.1,829.4 1667.3,838.1Q1609.1,842.4 1546.3,834.4Q1550.6,831.0 1545.3,822.8" fill="none" stroke="#2a2724" stroke-width="6.55" stroke-linecap="butt" stroke-linejoin="round" opacity="0.504"></path><g transform="rotate(-6 387.36 896.42)"><path d="M342.3,874.2Q381.9,867.0 437.8,865.9" fill="none" stroke="#2a2724" stroke-width="14.88" stroke-linecap="butt" stroke-linejoin="round" opacity="0.84"></path><path d="M438.0,918.5Q394.3,919.7 332.1,922.6" fill="none" stroke="#2a2724" stroke-width="14.88" stroke-linecap="butt" stroke-linejoin="round" opacity="0.84"></path><path d="M345.9,875.3Q389.8,872.7 441.3,864.9" fill="none" stroke="#2a2724" stroke-width="9.82" stroke-linecap="butt" stroke-linejoin="round" opacity="0.504"></path><path d="M434.2,918.8Q377.0,927.3 341.4,922.7" fill="none" stroke="#2a2724" stroke-width="9.82" stroke-linecap="butt" stroke-linejoin="round" opacity="0.504"></path><path d="M365.0,887.8Q361.4,897.1 369.4,888.1Q364.4,898.2 364.6,895.5Q363.4,897.3 366.5,892.5Q371.4,899.2 367.0,893.7Q361.3,901.8 359.8,902.6Q365.3,893.6 356.4,902.1Q362.3,900.1 354.5,902.5Q360.1,891.7 356.1,899.7Q358.2,891.9 355.7,896.9Q350.9,891.8 354.2,893.7Q354.3,890.8 350.7,889.7Q346.1,886.3 351.8,892.7Q351.3,892.3 350.8,886.6Q352.8,892.7 345.9,888.1Q350.7,886.4 354.6,882.5Q354.5,890.5 354.1,881.7Q353.0,881.9 355.7,886.2Q350.5,883.8 356.7,880.0Q350.7,875.6 353.1,881.3Q352.4,881.6 364.2,881.2Q360.9,877.2 359.0,884.6Q360.8,887.8 366.9,884.6Q361.0,881.1 369.0,887.0Q359.6,891.2 371.4,884.9Q364.2,885.6 368.0,882.9Q365.2,890.2 368.7,886.3Z" fill="none" stroke="#2a2724" stroke-width="11.16" stroke-linecap="butt" stroke-linejoin="round" opacity="0.84"></path><path d="M364.7,883.8Q375.6,889.4 371.4,887.2Q368.4,896.5 365.3,890.6Q372.8,886.2 361.3,892.6Q365.2,896.3 366.2,903.4Q367.8,905.4 357.0,894.3Q359.2,892.4 357.9,902.4Q358.0,898.5 362.1,904.4Q349.8,890.0 360.7,901.5Q351.3,899.1 359.8,900.4Q351.2,904.3 353.9,892.5Q345.3,891.8 353.4,895.3Q352.8,900.9 353.5,894.2Q353.5,893.0 345.5,895.2Q342.0,887.4 345.5,885.2Q344.4,891.8 355.8,891.9Q343.1,875.5 350.2,888.9Q357.6,886.2 354.7,884.8Q353.0,880.0 352.4,886.8Q356.7,875.6 357.9,884.4Q352.9,888.7 360.0,885.0Q362.3,875.8 364.2,876.4Q362.9,876.0 358.3,888.1Q365.9,885.7 360.0,885.2Q368.9,878.7 364.0,884.6Q367.8,882.8 362.1,886.4Q372.9,892.6 373.7,891.2Z" fill="none" stroke="#2a2724" stroke-width="7.37" stroke-linecap="butt" stroke-linejoin="round" opacity="0.504"></path><path d="M443.6,910.4Q450.2,926.9 464.8,921.4" fill="none" stroke="#8f8c83" stroke-width="12.40" stroke-linecap="butt" stroke-linejoin="round" opacity="0.462"></path><path d="M441.3,919.1Q446.1,918.7 463.3,924.8" fill="none" stroke="#8f8c83" stroke-width="8.18" stroke-linecap="butt" stroke-linejoin="round" opacity="0.277"></path></g><path d="M598.9,1072.7Q641.6,1055.6 675.7,1016.8" fill="none" stroke="#2a2724" stroke-width="22.32" stroke-linecap="butt" stroke-linejoin="round" opacity="0.84"></path><path d="M785.0,959.5Q830.2,960.9 897.4,968.1" fill="none" stroke="#2a2724" stroke-width="22.32" stroke-linecap="butt" stroke-linejoin="round" opacity="0.84"></path><path d="M594.0,1092.0Q636.9,1031.9 667.0,1011.0" fill="none" stroke="#2a2724" stroke-width="14.73" stroke-linecap="butt" stroke-linejoin="round" opacity="0.504"></path><path d="M786.6,959.4Q843.1,972.1 884.2,948.9" fill="none" stroke="#2a2724" stroke-width="14.73" stroke-linecap="butt" stroke-linejoin="round" opacity="0.504"></path><path d="M1040.9,953.0Q1103.0,961.0 1150.3,989.5" fill="none" stroke="#2a2724" stroke-width="22.32" stroke-linecap="butt" stroke-linejoin="round" opacity="0.84"></path><path d="M1244.2,1032.8Q1264.8,1063.7 1295.0,1086.5" fill="none" stroke="#2a2724" stroke-width="22.32" stroke-linecap="butt" stroke-linejoin="round" opacity="0.84"></path><path d="M1024.5,970.7Q1073.1,965.9 1145.2,993.4" fill="none" stroke="#2a2724" stroke-width="14.73" stroke-linecap="butt" stroke-linejoin="round" opacity="0.504"></path><path d="M1242.9,1027.6Q1262.8,1055.7 1299.5,1072.3" fill="none" stroke="#2a2724" stroke-width="14.73" stroke-linecap="butt" stroke-linejoin="round" opacity="0.504"></path><path d="M1111.6,768.5Q1098.8,795.7 1114.6,799.5Q1115.5,822.2 1097.4,840.4Q1084.6,850.4 1075.1,880.7Q1063.0,889.5 1050.3,902.5Q1027.3,915.9 1034.0,928.6Q1018.7,953.5 977.7,950.5Q977.1,937.1 944.4,955.1Q918.6,927.9 906.0,942.6Q877.9,918.1 865.1,917.5Q845.8,900.3 852.5,895.7Q848.8,877.5 815.2,845.3" fill="none" stroke="#2a2724" stroke-width="22.32" stroke-linecap="butt" stroke-linejoin="round" opacity="0.84"></path><path d="M815.1,772.4Q816.5,737.9 823.0,739.5Q843.7,703.5 844.8,697.8Q846.2,678.8 862.4,662.3Q875.1,647.9 911.6,641.0Q930.8,648.1 934.1,635.6Q952.4,622.5 979.1,640.5Q1002.5,645.8 1027.3,653.6Q1033.3,664.3 1051.9,673.6Q1059.5,685.0 1077.7,689.7Q1084.2,723.7 1093.6,736.0Q1118.4,749.0 1103.4,770.6Q1123.8,794.2 1115.5,824.9Q1104.3,840.9 1094.8,858.2" fill="none" stroke="#2a2724" stroke-width="22.32" stroke-linecap="butt" stroke-linejoin="round" opacity="0.84"></path><path d="M1098.6,763.3Q1112.7,786.4 1122.7,811.6Q1098.5,818.8 1114.0,852.4Q1077.4,866.2 1097.9,870.8Q1080.7,884.5 1063.4,917.8Q1035.3,924.9 1011.3,932.3Q995.4,928.1 973.3,951.9Q969.7,936.4 951.4,933.6Q912.3,954.5 916.5,946.6Q884.1,933.5 859.7,931.3Q869.0,889.6 853.8,884.5Q835.3,868.4 811.7,848.1" fill="none" stroke="#2a2724" stroke-width="14.73" stroke-linecap="butt" stroke-linejoin="round" opacity="0.504"></path><path d="M799.1,777.9Q798.2,736.9 832.8,727.6Q826.0,723.9 852.8,697.5Q845.5,674.5 870.8,654.7Q877.4,638.1 905.6,645.4Q909.8,634.3 952.5,624.5Q963.0,638.0 990.1,624.7Q1015.8,633.6 1032.8,636.3Q1026.5,636.6 1062.2,675.6Q1049.2,694.7 1078.5,701.8Q1107.5,724.5 1097.2,737.9Q1091.7,758.0 1123.8,760.5Q1098.2,783.6 1113.0,821.5Q1085.1,835.1 1103.1,863.4" fill="none" stroke="#2a2724" stroke-width="14.73" stroke-linecap="butt" stroke-linejoin="round" opacity="0.504"></path><path d="M902.3,933.9Q914.9,946.3 906.2,962.2" fill="none" stroke="#2a2724" stroke-width="17.36" stroke-linecap="butt" stroke-linejoin="round" opacity="0.84"></path><path d="M912.6,928.6Q907.9,938.3 911.3,966.7" fill="none" stroke="#2a2724" stroke-width="11.46" stroke-linecap="butt" stroke-linejoin="round" opacity="0.504"></path><path d="M1012.1,923.2Q1007.9,946.2 1003.7,961.2" fill="none" stroke="#2a2724" stroke-width="17.36" stroke-linecap="butt" stroke-linejoin="round" opacity="0.84"></path><path d="M1012.0,919.9Q1022.4,929.7 1011.2,957.7" fill="none" stroke="#2a2724" stroke-width="11.46" stroke-linecap="butt" stroke-linejoin="round" opacity="0.504"></path><path d="M950.5,645.2Q936.6,624.4 927.5,592.5Q946.7,601.1 986.1,614.5Q975.0,639.7 962.8,649.6" fill="none" stroke="#2a2724" stroke-width="17.36" stroke-linecap="butt" stroke-linejoin="round" opacity="0.84"></path><path d="M961.1,643.0Q930.1,621.9 919.6,589.7Q957.4,604.9 975.0,606.0Q959.2,629.1 951.4,649.6" fill="none" stroke="#2a2724" stroke-width="11.46" stroke-linecap="butt" stroke-linejoin="round" opacity="0.504"></path></g></svg>