<svg xmlns="http://www.w3.org/2000/svg" width="2160" height="3840" viewBox="0 0 1080 1920"><g transform="translate(0.00,0.00) scale(1.0000)"><path d="M49.1,114.1Q540.4,105.5 1031.0,107.4" fill="none" stroke="#2a2724" stroke-width="20.75" stroke-linecap="butt" stroke-linejoin="round" opacity="0.84"></path><path d="M42.8,108.5Q542.3,106.0 1029.3,118.2" fill="none" stroke="#2a2724" stroke-width="13.69" stroke-linecap="butt" stroke-linejoin="round" opacity="0.504"></path><path d="M1006.4,95.5Q1005.7,718.9 1009.6,1358.5" fill="none" stroke="#2a2724" stroke-width="20.75" stroke-linecap="butt" stroke-linejoin="round" opacity="0.84"></path><path d="M1002.0,89.0Q1016.8,722.4 1001.4,1352.3" fill="none" stroke="#2a2724" stroke-width="13.69" stroke-linecap="butt" stroke-linejoin="round" opacity="0.504"></path><path d="M1027.1,1335.8Q531.6,1347.1 52.0,1343.6" fill="none" stroke="#2a2724" stroke-width="20.75" stroke-linecap="butt" stroke-linejoin="round" opacity="0.84"></path><path d="M1038.0,1345.8Q552.3,1343.2 51.9,1336.1" fill="none" stroke="#2a2724" stroke-width="13.69" stroke-linecap="butt" stroke-linejoin="round" opacity="0.504"></path><path d="M70.4,1361.5Q74.6,718.5 71.3,86.8" fill="none" stroke="#2a2724" stroke-width="20.75" stroke-linecap="butt" stroke-linejoin="round" opacity="0.84"></path><path d="M68.8,1356.8Q82.2,728.5 61.7,93.2" fill="none" stroke="#2a2724" stroke-width="13.69" stroke-linecap="butt" stroke-linejoin="round" opacity="0.504"></path><path d="M66.2,257.0Q548.2,259.3 1012.0,256.3" fill="none" stroke="#2a2724" stroke-width="16.14" stroke-linecap="butt" stroke-linejoin="round" opacity="0.84"></path><path d="M72.7,262.2Q538.1,262.2 1014.6,250.8" fill="none" stroke="#2a2724" stroke-width="10.65" stroke-linecap="butt" stroke-linejoin="round" opacity="0.504"></path><path d="M126.0,147.2Q131.6,152.1 130.8,146.4Q130.4,154.6 129.9,152.4Q119.6,148.5 128.5,155.4Q122.6,153.0 122.0,160.3Q123.8,164.3 115.7,156.7Q116.0,164.4 118.5,162.5Q111.2,156.0 112.4,155.7Q115.2,158.6 107.3,161.7Q109.4,156.6 102.7,159.0Q105.4,157.1 99.1,156.3Q106.9,153.8 98.3,150.9Q106.9,146.7 97.3,147.4Q104.7,144.9 96.4,141.7Q104.9,143.6 100.8,145.6Q97.4,138.4 98.8,140.3Q98.7,140.5 106.8,140.6Q110.6,132.6 104.7,130.3Q113.0,137.8 105.0,131.4Q105.9,131.1 110.3,128.1Q110.4,130.4 120.0,133.7Q112.7,128.5 114.7,136.8Q116.3,135.9 117.6,136.2Q122.3,136.2 127.3,140.9Q129.2,141.4 126.1,143.1Q131.9,144.3 129.7,143.4Q125.8,140.2 131.6,144.9Z" fill="none" stroke="#2a2724" stroke-width="13.83" stroke-linecap="butt" stroke-linejoin="round" opacity="0.84"></path><path d="M130.9,146.7Q130.0,152.8 128.8,153.3Q127.4,157.7 123.5,146.9Q129.2,152.8 125.0,157.7Q117.1,155.9 125.7,162.5Q114.2,163.4 114.2,165.1Q118.3,166.8 119.6,166.0Q120.9,159.3 115.5,154.5Q112.5,154.5 109.6,156.1Q105.3,165.4 109.3,160.2Q104.3,164.7 97.9,154.1Q94.5,157.5 106.9,153.1Q98.4,152.7 97.6,154.2Q95.3,142.9 98.6,143.6Q98.8,149.3 96.1,144.1Q96.2,138.8 100.4,143.2Q106.7,135.9 107.6,134.7Q100.2,138.0 104.5,140.0Q101.9,138.9 111.8,129.0Q103.3,127.3 111.7,125.8Q122.5,133.3 117.5,132.6Q124.8,125.8 118.7,132.7Q113.1,129.6 121.8,131.5Q119.0,127.6 119.0,131.7Q118.9,129.6 122.2,142.6Q120.7,135.2 124.1,140.5Q136.1,141.1 122.9,144.3Z" fill="none" stroke="#2a2724" stroke-width="9.13" stroke-linecap="butt" stroke-linejoin="round" opacity="0.504"></path><path d="M117.7,146.9Q119.7,146.9 117.0,146.2Q116.9,145.5 121.0,151.2Q114.5,147.9 118.6,150.5Q116.1,147.9 114.1,148.3Q112.7,147.7 118.0,149.5Q118.8,149.2 113.2,150.1Q117.5,153.7 112.7,152.6Q116.1,149.8 110.8,148.6Q113.1,149.1 112.5,150.2Q113.0,148.2 111.4,151.0Q109.0,149.7 109.6,146.3Q109.4,144.4 109.7,148.8Q109.7,149.6 108.2,147.5Q105.2,144.1 108.4,145.7Q105.7,147.2 106.6,142.3Q113.2,146.7 110.2,139.7Q107.8,137.6 108.4,144.4Q114.0,141.1 109.9,141.7Q108.4,140.8 113.4,142.2Q116.3,139.5 112.2,140.7Q118.6,140.7 113.7,141.9Q112.8,143.6 114.2,141.5Q121.4,141.1 118.8,142.8Q116.0,144.7 115.8,142.9Q123.5,143.7 119.8,147.0Q123.5,141.1 121.8,144.6Z" fill="none" stroke="#8f8c83" stroke-width="9.22" stroke-linecap="butt" stroke-linejoin="round" opacity="0.84"></path><path d="M123.6,144.8Q115.4,152.6 119.4,148.1Q121.3,151.8 117.6,147.9Q116.2,144.2 119.8,145.8Q123.2,153.9 114.6,151.8Q115.1,147.4 113.3,148.1Q119.4,150.6 114.2,150.8Q117.9,155.5 110.9,152.3Q115.4,145.7 107.9,154.8Q108.6,149.9 107.7,154.0Q109.1,153.0 106.7,152.2Q112.1,150.1 112.4,151.9Q107.8,146.2 112.3,148.2Q107.9,150.6 108.7,147.9Q111.0,148.8 109.0,147.8Q114.3,140.4 110.1,145.9Q106.7,141.1 113.6,146.1Q112.7,145.3 109.6,137.4Q110.1,140.5 111.0,141.6Q114.1,141.6 116.5,143.0Q112.2,145.9 116.6,142.6Q115.5,134.8 117.6,138.6Q111.3,137.8 118.9,138.5Q115.8,142.4 120.3,139.3Q112.9,147.2 117.3,144.3Q122.0,144.4 115.2,142.0Q118.0,151.1 117.9,149.7Z" fill="none" stroke="#8f8c83" stroke-width="6.09" stroke-linecap="butt" stroke-linejoin="round" opacity="0.504"></path><path d="M978.3,138.4Q984.4,147.9 976.5,149.5Q983.8,146.1 980.9,149.9Q980.8,153.3 980.6,149.1Q974.9,153.2 975.7,154.1Q967.3,154.0 968.1,151.7Q963.9,156.8 966.1,153.3Q967.4,158.6 960.1,157.2Q964.1,149.6 958.1,153.8Q964.2,152.7 960.5,152.7Q962.2,146.7 953.7,151.9Q958.8,152.0 954.7,146.4Q946.7,144.6 952.6,147.1Q952.8,144.6 950.0,144.3Q951.0,146.4 949.3,135.6Q952.1,132.5 955.1,136.9Q956.6,136.5 958.0,135.7Q950.8,131.7 956.1,126.2Q953.5,123.4 962.2,128.2Q967.2,127.4 963.6,128.7Q969.5,121.5 966.8,126.3Q964.8,129.2 970.6,130.6Q975.4,129.6 977.3,132.0Q980.8,136.4 977.0,133.2Q972.7,134.7 982.3,137.1Q984.2,141.4 980.7,137.9Q975.1,141.8 978.4,140.3Z" fill="none" stroke="#2a2724" stroke-width="13.83" stroke-linecap="butt" stroke-linejoin="round" opacity="0.84"></path><path d="M986.2,136.1Q986.6,137.2 974.2,148.3Q972.0,150.4 975.6,149.5Q976.4,146.6 974.8,148.3Q983.4,147.6 975.7,154.0Q971.5,155.7 969.1,156.3Q963.6,156.9 967.7,162.1Q960.9,159.2 966.5,153.6Q959.1,158.4 956.1,152.6Q952.2,147.2 962.7,148.7Q959.7,144.7 950.0,153.5Q949.8,153.7 948.5,149.4Q954.2,140.0 950.7,149.5Q959.1,151.7 950.1,145.7Q950.1,132.6 952.0,139.8Q946.8,139.1 955.2,132.0Q953.1,130.2 950.2,133.0Q950.9,134.0 952.0,126.4Q966.0,137.8 963.6,128.6Q960.1,127.2 958.9,122.0Q958.8,134.3 967.4,125.7Q961.9,133.9 966.2,127.0Q979.3,132.9 979.9,130.3Q972.6,129.3 979.2,134.5Q985.5,141.9 974.3,132.0Q978.4,139.1 978.8,140.4Q980.2,134.2 978.6,137.3Z" fill="none" stroke="#2a2724" stroke-width="9.13" stroke-linecap="butt" stroke-linejoin="round" opacity="0.504"></path><path d="M969.9,140.3Q974.2,141.9 970.0,146.0Q968.8,140.6 969.4,144.4Q970.9,145.7 973.2,145.4Q966.5,144.8 966.1,143.7Q971.1,150.6 970.2,145.1Q964.8,150.0 965.8,147.0Q967.7,143.2 968.2,144.4Q963.8,146.6 963.7,145.6Q959.9,149.8 965.8,148.0Q965.5,145.2 959.2,148.4Q959.7,144.9 958.7,144.4Q962.2,144.0 962.2,144.9Q962.9,138.8 958.3,142.1Q958.1,141.2 963.1,142.5Q956.8,142.6 963.2,140.3Q959.4,143.0 963.0,136.4Q963.1,134.1 960.4,134.3Q965.2,135.6 962.8,138.8Q966.3,132.9 965.8,135.4Q962.0,136.7 967.8,137.4Q970.9,139.5 966.1,139.3Q965.2,139.4 972.1,136.5Q968.5,133.5 967.7,139.5Q973.0,137.9 973.0,138.2Q966.9,140.7 972.8,141.5Q967.9,141.2 969.6,140.3Z" fill="none" stroke="#8f8c83" stroke-width="9.22" stroke-linecap="butt" stroke-linejoin="round" opacity="0.84"></path><path d="M967.8,139.4Q976.2,142.1 974.2,145.4Q965.3,141.8 971.2,146.7Q971.5,139.6 968.4,142.1Q966.6,150.2 967.5,145.5Q964.7,142.6 967.3,144.0Q963.6,143.0 970.0,150.3Q963.6,147.3 966.0,150.8Q969.9,149.5 961.3,149.4Q960.7,143.4 964.9,149.4Q965.4,151.5 962.9,144.4Q962.5,144.7 965.2,141.1Q966.3,149.0 960.9,145.2Q958.5,146.6 964.5,143.3Q965.5,140.1 958.0,140.3Q964.0,136.7 958.0,137.4Q966.2,138.4 960.3,137.1Q958.3,135.1 959.1,136.4Q958.6,142.9 967.8,136.2Q963.6,136.4 964.3,140.1Q969.9,135.2 962.9,135.9Q969.8,133.1 965.4,140.2Q965.4,140.1 972.8,133.9Q972.0,140.5 969.3,139.3Q971.1,135.0 967.7,140.8Q974.0,145.8 975.1,143.9Q974.7,140.7 974.6,142.4Z" fill="none" stroke="#8f8c83" stroke-width="6.09" stroke-linecap="butt" stroke-linejoin="round" opacity="0.504"></path><path d="M494.9,76.5Q538.0,82.6 575.9,83.7Q580.4,105.0 580.4,118.1Q544.2,115.3 508.1,120.1Z" fill="none" stroke="#2a2724" stroke-width="13.83" stroke-linecap="butt" stroke-linejoin="round" opacity="0.84"></path><path d="M497.7,75.5Q533.8,88.4 583.2,83.6Q569.5,106.8 574.9,117.2Q547.7,115.8 511.4,124.2Z" fill="none" stroke="#2a2724" stroke-width="9.13" stroke-linecap="butt" stroke-linejoin="round" opacity="0.504"></path><path d="M512.1,80.1Q516.1,63.2 503.3,42.1" fill="none" stroke="#8f8c83" stroke-width="11.53" stroke-linecap="butt" stroke-linejoin="round" opacity="0.84"></path><path d="M524.0,77.4Q517.5,68.6 508.8,43.5" fill="none" stroke="#8f8c83" stroke-width="7.61" stroke-linecap="butt" stroke-linejoin="round" opacity="0.504"></path><path d="M565.0,72.7Q568.8,65.0 569.0,43.2" fill="none" stroke="#8f8c83" stroke-width="11.53" stroke-linecap="butt" stroke-linejoin="round" opacity="0.84"></path><path d="M569.4,77.4Q566.9,55.6 567.5,36.9" fill="none" stroke="#8f8c83" stroke-width="7.61" stroke-linecap="butt" stroke-linejoin="round" opacity="0.504"></path><path d="M-50.1,1469.4Q549.2,1474.1 1127.7,1467.5" fill="none" stroke="#2a2724" stroke-width="13.83" stroke-linecap="butt" stroke-linejoin="round" opacity="0.672"></path><path d="M-41.5,1482.4Q541.6,1460.5 1133.7,1464.1" fill="none" stroke="#2a2724" stroke-width="9.13" stroke-linecap="butt" stroke-linejoin="round" opacity="0.403"></path><path d="M1023.5,1345.5Q1066.4,1362.5 1105.0,1389.0" fill="none" stroke="#8f8c83" stroke-width="11.53" stroke-linecap="butt" stroke-linejoin="round" opacity="0.462"></path><path d="M1026.1,1343.9Q1061.9,1357.8 1112.0,1390.8" fill="none" stroke="#8f8c83" stroke-width="7.61" stroke-linecap="butt" stroke-linejoin="round" opacity="0.277"></path></g></svg>