<svg xmlns="http://www.w3.org/2000/svg" width="1280" height="720" viewBox="0 0 1280 720"><g transform="translate(0.00,0.00) scale(1.0000)"><path d="M9.8,17.7Q645.0,17.3 1271.2,24.5" fill="none" stroke="#2a2724" stroke-width="26.04" stroke-linecap="butt" stroke-linejoin="round" opacity="0.84"></path><path d="M8.0,20.7Q645.6,14.5 1272.1,28.2" fill="none" stroke="#2a2724" stroke-width="17.19" stroke-linecap="butt" stroke-linejoin="round" opacity="0.504"></path><path d="M1254.7,8.9Q1257.7,364.6 1255.8,715.3" fill="none" stroke="#2a2724" stroke-width="26.04" stroke-linecap="butt" stroke-linejoin="round" opacity="0.84"></path><path d="M1262.2,0.9Q1249.8,362.5 1262.4,712.1" fill="none" stroke="#2a2724" stroke-width="17.19" stroke-linecap="butt" stroke-linejoin="round" opacity="0.504"></path><path d="M1276.3,699.9Q634.6,697.2 7.0,702.3" fill="none" stroke="#2a2724" stroke-width="26.04" stroke-linecap="butt" stroke-linejoin="round" opacity="0.84"></path><path d="M1269.1,700.3Q644.6,706.1 9.3,695.6" fill="none" stroke="#2a2724" stroke-width="17.19" stroke-linecap="butt" stroke-linejoin="round" opacity="0.504"></path><path d="M26.3,718.7Q23.6,355.7 21.4,2.2" fill="none" stroke="#2a2724" stroke-width="26.04" stroke-linecap="butt" stroke-linejoin="round" opacity="0.84"></path><path d="M16.9,711.3Q17.6,364.6 25.4,7.7" fill="none" stroke="#2a2724" stroke-width="17.19" stroke-linecap="butt" stroke-linejoin="round" opacity="0.504"></path><path d="M75.7,598.6Q422.3,587.7 765.1,594.0" fill="none" stroke="#2a2724" stroke-width="32.55" stroke-linecap="butt" stroke-linejoin="round" opacity="0.84"></path><path d="M73.1,598.1Q426.4,583.8 764.5,583.9" fill="none" stroke="#2a2724" stroke-width="21.48" stroke-linecap="butt" stroke-linejoin="round" opacity="0.504"></path><path d="M809.1,299.4Q1012.9,304.0 1209.9,296.7" fill="none" stroke="#2a2724" stroke-width="21.16" stroke-linecap="butt" stroke-linejoin="round" opacity="0.84"></path><path d="M815.4,299.1Q1016.2,287.9 1210.8,291.2" fill="none" stroke="#2a2724" stroke-width="13.96" stroke-linecap="butt" stroke-linejoin="round" opacity="0.504"></path></g></svg>