<svg xmlns="http://www.w3.org/2000/svg" width="960" height="1480" viewBox="0 0 480 740"><g transform="translate(0.00,0.00) scale(1.0000)"><path d="M2.4,25.5Q227.8,23.9 459.0,21.3" fill="none" stroke="#2b3242" stroke-width="2.77" stroke-linecap="round" stroke-linejoin="round" opacity="0.94"></path><path d="M1.9,28.7Q230.9,23.7 461.2,23.1" fill="none" stroke="#2b3242" stroke-width="1.94" stroke-linecap="round" stroke-linejoin="round" opacity="0.564"></path><path d="M2.3,28.5Q226.9,21.0 455.0,24.3" fill="none" stroke="#2b3242" stroke-width="1.28" stroke-linecap="round" stroke-linejoin="round" opacity="0.376"></path><path d="M31.1,29.1Q31.0,188.7 30.1,351.2Q31.0,524.5 29.2,698.7" fill="none" stroke="#2b3242" stroke-width="2.38" stroke-linecap="round" stroke-linejoin="round" opacity="0.94"></path><path d="M28.8,29.4Q28.4,193.3 31.3,351.0Q29.6,527.1 31.8,699.0" fill="none" stroke="#2b3242" stroke-width="1.66" stroke-linecap="round" stroke-linejoin="round" opacity="0.564"></path><path d="M30.5,30.1Q33.1,193.8 28.7,347.5Q33.7,522.5 27.8,702.8" fill="none" stroke="#2b3242" stroke-width="1.09" stroke-linecap="round" stroke-linejoin="round" opacity="0.376"></path><path d="M113.2,29.5Q118.6,190.7 121.2,350.1Q119.7,522.7 115.1,699.3" fill="none" stroke="#2b3242" stroke-width="2.38" stroke-linecap="round" stroke-linejoin="round" opacity="0.94"></path><path d="M113.9,28.5Q118.9,187.4 119.9,350.1Q122.2,525.2 118.7,699.0" fill="none" stroke="#2b3242" stroke-width="1.66" stroke-linecap="round" stroke-linejoin="round" opacity="0.564"></path><path d="M117.6,26.4Q116.8,194.9 121.5,347.8Q120.4,519.7 115.0,699.5" fill="none" stroke="#2b3242" stroke-width="1.09" stroke-linecap="round" stroke-linejoin="round" opacity="0.376"></path><path d="M198.2,29.2Q202.5,188.7 209.3,348.4Q206.9,527.3 203.9,700.7" fill="none" stroke="#2b3242" stroke-width="2.38" stroke-linecap="round" stroke-linejoin="round" opacity="0.94"></path><path d="M198.2,27.6Q200.5,187.8 209.5,347.8Q203.3,524.9 203.8,698.4" fill="none" stroke="#2b3242" stroke-width="1.66" stroke-linecap="round" stroke-linejoin="round" opacity="0.564"></path><path d="M194.9,33.8Q208.0,190.1 208.3,348.7Q203.2,523.9 202.2,698.5" fill="none" stroke="#2b3242" stroke-width="1.09" stroke-linecap="round" stroke-linejoin="round" opacity="0.376"></path><path d="M283.0,31.1Q286.7,189.0 291.5,349.7Q290.4,525.5 285.5,700.4" fill="none" stroke="#2b3242" stroke-width="2.38" stroke-linecap="round" stroke-linejoin="round" opacity="0.94"></path><path d="M281.7,27.7Q284.7,188.0 291.9,348.1Q289.6,524.1 283.3,697.9" fill="none" stroke="#2b3242" stroke-width="1.66" stroke-linecap="round" stroke-linejoin="round" opacity="0.564"></path><path d="M284.5,29.5Q281.8,190.3 294.9,353.0Q292.5,525.9 289.1,699.7" fill="none" stroke="#2b3242" stroke-width="1.09" stroke-linecap="round" stroke-linejoin="round" opacity="0.376"></path><path d="M366.1,29.4Q368.8,190.4 371.0,349.1Q366.6,526.1 366.2,700.3" fill="none" stroke="#2b3242" stroke-width="2.38" stroke-linecap="round" stroke-linejoin="round" opacity="0.94"></path><path d="M365.3,27.7Q365.4,191.8 368.5,351.3Q366.7,527.7 366.4,702.4" fill="none" stroke="#2b3242" stroke-width="1.66" stroke-linecap="round" stroke-linejoin="round" opacity="0.564"></path><path d="M362.5,27.8Q372.3,195.4 368.0,348.6Q366.3,529.2 371.0,701.8" fill="none" stroke="#2b3242" stroke-width="1.09" stroke-linecap="round" stroke-linejoin="round" opacity="0.376"></path><path d="M449.1,30.4Q450.4,191.7 447.3,351.2Q445.3,523.6 447.5,699.2" fill="none" stroke="#2b3242" stroke-width="2.38" stroke-linecap="round" stroke-linejoin="round" opacity="0.94"></path><path d="M448.3,27.8Q450.2,188.0 446.2,348.5Q450.8,526.9 448.5,698.6" fill="none" stroke="#2b3242" stroke-width="1.66" stroke-linecap="round" stroke-linejoin="round" opacity="0.564"></path><path d="M452.1,28.1Q450.0,190.2 449.1,346.8Q445.5,528.7 449.8,697.1" fill="none" stroke="#2b3242" stroke-width="1.09" stroke-linecap="round" stroke-linejoin="round" opacity="0.376"></path><path d="M17.4,701.0Q241.0,692.8 460.9,686.8" fill="none" stroke="#2b3242" stroke-width="1.98" stroke-linecap="round" stroke-linejoin="round" opacity="0.94"></path><path d="M14.9,702.0Q240.5,694.5 460.1,687.8" fill="none" stroke="#2b3242" stroke-width="1.39" stroke-linecap="round" stroke-linejoin="round" opacity="0.564"></path><path d="M20.6,695.7Q234.2,698.3 465.9,683.8" fill="none" stroke="#2b3242" stroke-width="0.91" stroke-linecap="round" stroke-linejoin="round" opacity="0.376"></path></g></svg>