<svg xmlns="http://www.w3.org/2000/svg" width="1280" height="720" viewBox="0 0 1280 720"><g transform="translate(0.00,0.00) scale(1.0000)"><path d="M5.5,23.7Q640.3,24.2 1275.8,20.6" fill="none" stroke="#2b3242" stroke-width="6.21" stroke-linecap="round" stroke-linejoin="round" opacity="0.94"></path><path d="M8.0,23.3Q642.6,22.0 1276.1,20.6" fill="none" stroke="#2b3242" stroke-width="4.35" stroke-linecap="round" stroke-linejoin="round" opacity="0.564"></path><path d="M6.2,24.5Q639.2,25.6 1273.3,25.6" fill="none" stroke="#2b3242" stroke-width="2.86" stroke-linecap="round" stroke-linejoin="round" opacity="0.376"></path><path d="M1259.8,6.5Q1260.8,357.4 1258.2,715.4" fill="none" stroke="#2b3242" stroke-width="6.21" stroke-linecap="round" stroke-linejoin="round" opacity="0.94"></path><path d="M1256.5,6.9Q1258.8,363.6 1257.8,714.4" fill="none" stroke="#2b3242" stroke-width="4.35" stroke-linecap="round" stroke-linejoin="round" opacity="0.564"></path><path d="M1256.7,3.0Q1256.5,364.7 1259.8,717.2" fill="none" stroke="#2b3242" stroke-width="2.86" stroke-linecap="round" stroke-linejoin="round" opacity="0.376"></path><path d="M1276.2,698.6Q639.0,698.6 6.0,699.5" fill="none" stroke="#2b3242" stroke-width="6.21" stroke-linecap="round" stroke-linejoin="round" opacity="0.94"></path><path d="M1275.5,699.5Q642.1,696.8 8.0,697.2" fill="none" stroke="#2b3242" stroke-width="4.35" stroke-linecap="round" stroke-linejoin="round" opacity="0.564"></path><path d="M1274.5,700.8Q639.2,696.7 2.7,699.2" fill="none" stroke="#2b3242" stroke-width="2.86" stroke-linecap="round" stroke-linejoin="round" opacity="0.376"></path><path d="M20.5,714.0Q21.7,361.2 22.8,5.5" fill="none" stroke="#2b3242" stroke-width="6.21" stroke-linecap="round" stroke-linejoin="round" opacity="0.94"></path><path d="M24.6,712.9Q25.1,362.1 19.6,2.6" fill="none" stroke="#2b3242" stroke-width="4.35" stroke-linecap="round" stroke-linejoin="round" opacity="0.564"></path><path d="M24.9,713.8Q18.4,361.2 23.3,7.6" fill="none" stroke="#2b3242" stroke-width="2.86" stroke-linecap="round" stroke-linejoin="round" opacity="0.376"></path><path d="M70.9,596.6Q413.6,592.3 760.2,588.4" fill="none" stroke="#2b3242" stroke-width="7.77" stroke-linecap="round" stroke-linejoin="round" opacity="0.94"></path><path d="M70.7,594.1Q419.8,589.8 760.1,584.4" fill="none" stroke="#2b3242" stroke-width="5.44" stroke-linecap="round" stroke-linejoin="round" opacity="0.564"></path><path d="M68.9,594.5Q422.8,591.2 762.2,593.7" fill="none" stroke="#2b3242" stroke-width="3.57" stroke-linecap="round" stroke-linejoin="round" opacity="0.376"></path><path d="M813.1,300.2Q1012.5,299.9 1216.6,291.7" fill="none" stroke="#2b3242" stroke-width="5.05" stroke-linecap="round" stroke-linejoin="round" opacity="0.94"></path><path d="M813.3,298.4Q1009.7,300.8 1213.8,291.8" fill="none" stroke="#2b3242" stroke-width="3.53" stroke-linecap="round" stroke-linejoin="round" opacity="0.564"></path><path d="M808.5,296.8Q1017.3,297.5 1213.4,296.5" fill="none" stroke="#2b3242" stroke-width="2.32" stroke-linecap="round" stroke-linejoin="round" opacity="0.376"></path></g></svg>